<svg id="back-svgrepo-com" xmlns="http://www.w3.org/2000/svg" width="260.813" height="260.813" viewBox="0 0 260.813 260.813">
  <g id="Arrow_Left_Circle" transform="translate(0 0)">
    <path id="Path_1" data-name="Path 1" d="M130.406,0A130.406,130.406,0,1,0,260.813,130.406,130.412,130.412,0,0,0,130.406,0Zm0,244.512A114.105,114.105,0,1,1,244.512,130.406,114.105,114.105,0,0,1,130.406,244.512Z" transform="translate(0 0)" fill="#606"/>
    <path id="Path_2" data-name="Path 2" d="M227.04,153.072H99.95l42.382-42.993a8.294,8.294,0,0,0,0-11.639,8.1,8.1,0,0,0-11.525,0l-56.23,57.045a8.319,8.319,0,0,0-2.4,5.82,8.412,8.412,0,0,0,2.388,5.82l56.23,57.045a8.09,8.09,0,0,0,11.525,0,8.289,8.289,0,0,0,0-11.647L99.942,169.529h127.1a8.228,8.228,0,0,0,0-16.456Z" transform="translate(-23.279 -30.971)" fill="#606"/>
  </g>
</svg>
