<svg xmlns="http://www.w3.org/2000/svg" width="44.328" height="44.325" viewBox="0 0 44.328 44.325">
  <g id="certificate-svgrepo-com" transform="translate(-11 -11)">
    <g id="Group_8971" data-name="Group 8971" transform="translate(11 11)">
      <path id="Path_123424" data-name="Path 123424" d="M51.637,46.381H44.5V39.406a8.656,8.656,0,0,0,2.189-5.754,8.958,8.958,0,0,0-17.912,0,8.656,8.656,0,0,0,2.189,5.754v6.975H14.691V14.691H51.628v31.69h.009Zm-13.9.914-3.049,2.343V41.921a9.183,9.183,0,0,0,3.049.525,8.958,8.958,0,0,0,3.049-.525v7.717Zm0-8.54A5.1,5.1,0,1,1,43,33.652,5.191,5.191,0,0,1,37.732,38.755ZM53.482,11H12.845A1.842,1.842,0,0,0,11,12.846V48.226a1.842,1.842,0,0,0,1.845,1.845h18.12v3.447a1.8,1.8,0,0,0,2.9,1.429l3.863-2.967L41.6,54.948a1.8,1.8,0,0,0,2.9-1.429V50.072h8.983a1.842,1.842,0,0,0,1.845-1.845V12.846A1.842,1.842,0,0,0,53.482,11Z" transform="translate(-11 -11)" fill="#e58c01"/>
      <path id="Path_123425" data-name="Path 123425" d="M132.545,107.791h18.97a1.845,1.845,0,1,0,0-3.691h-18.97a1.845,1.845,0,0,0,0,3.691Z" transform="translate(-119.871 -95.678)" fill="#e58c01"/>
    </g>
  </g>
</svg>
