<svg xmlns="http://www.w3.org/2000/svg" width="52.003" height="52" viewBox="0 0 52.003 52">
  <g id="certificate-svgrepo-com" transform="translate(-11 -11)">
    <g id="Group_8971" data-name="Group 8971" transform="translate(11 11)">
      <path id="Path_123424" data-name="Path 123424" d="M58.673,52.507H50.3V44.324a10.155,10.155,0,0,0,2.568-6.75,10.509,10.509,0,0,0-21.013,0,10.155,10.155,0,0,0,2.568,6.75v8.183H15.33V15.33H58.662V52.507h.011ZM42.361,53.579l-3.577,2.749V47.275a10.773,10.773,0,0,0,3.577.616,10.509,10.509,0,0,0,3.577-.616v9.053Zm0-10.019a5.989,5.989,0,1,1,6.177-5.986A6.09,6.09,0,0,1,42.361,43.56ZM60.838,11H13.165A2.161,2.161,0,0,0,11,13.165V54.672a2.161,2.161,0,0,0,2.165,2.165H34.423v4.044a2.117,2.117,0,0,0,3.407,1.677l4.532-3.481,4.532,3.481A2.117,2.117,0,0,0,50.3,60.881V56.837H60.838A2.161,2.161,0,0,0,63,54.672V13.165A2.161,2.161,0,0,0,60.838,11Z" transform="translate(-11 -11)" fill="#cbcbcb"/>
      <path id="Path_123425" data-name="Path 123425" d="M132.865,108.43H155.12a2.165,2.165,0,1,0,0-4.33H132.865a2.165,2.165,0,0,0,0,4.33Z" transform="translate(-117.996 -94.219)" fill="#cbcbcb"/>
    </g>
  </g>
</svg>
