<svg xmlns="http://www.w3.org/2000/svg" width="27.331" height="26" viewBox="0 0 27.331 26">
  <g id="customer-service-headset-svgrepo-com" transform="translate(0 -8.791)">
    <g id="Layer_5_47_" transform="translate(0 8.791)">
      <path id="Path_8914" data-name="Path 8914" d="M25.062,17.736h-.986c-.27,0-.279-.177-.288-.265a9.726,9.726,0,0,0-9.658-8.68H13.2a9.727,9.727,0,0,0-9.646,8.572c-.014.123-.022.372-.249.372H2.27c-.681,0-2.27.716-2.27,4.333v1.9c0,2.683,1.589,3.3,2.27,3.3h3.3a1.241,1.241,0,0,0,1.238-1.238V18.973a1.241,1.241,0,0,0-1.238-1.238s-.155-.014-.116-.29A7.855,7.855,0,0,1,13.2,10.684h.928a7.832,7.832,0,0,1,7.737,6.684c.018.122.084.368-.1.368a1.241,1.241,0,0,0-1.238,1.238v7.058a1.241,1.241,0,0,0,1.238,1.238h.62c.17,0,.141.136.126.2-.5,2.279-1.638,4.865-4.182,4.865H16.442a.291.291,0,0,1-.276-.208,1.8,1.8,0,0,0-1.578-.936H12.851a1.8,1.8,0,1,0,0,3.6h1.736a1.8,1.8,0,0,0,1.59-.959c.026-.05.048-.153.251-.153h1.9c1.728,0,4.04-.859,5.243-4.949.128-.436.232-.87.317-1.289a.172.172,0,0,1,.2-.172h.977c.681,0,2.27-.619,2.27-3.3v-1.9C27.331,18.5,25.742,17.736,25.062,17.736Z" transform="translate(0 -8.791)" fill="#6d6d6d"/>
    </g>
  </g>
</svg>
