<svg xmlns="http://www.w3.org/2000/svg" width="92.726" height="96.745" viewBox="0 0 92.726 96.745">
  <path id="consultation-svgrepo-com" d="M54.845,0H46.391A42.184,42.184,0,0,0,4.255,42.136V64.887a2.361,2.361,0,0,0,2.361,2.361H10.16v1.663a2.361,2.361,0,0,0,2.361,2.361h4.285a7.691,7.691,0,0,0,7.682-7.682V45.138a7.691,7.691,0,0,0-7.682-7.682H12.521a2.361,2.361,0,0,0-2.361,2.361V41.48H8.994a37.451,37.451,0,0,1,37.4-36.758h8.454a37.451,37.451,0,0,1,37.4,36.758H91.076V39.817a2.361,2.361,0,0,0-2.361-2.361H84.431a7.691,7.691,0,0,0-7.682,7.682V63.59a7.691,7.691,0,0,0,7.682,7.682h4.284a2.352,2.352,0,0,0,1.673-.7v5.1a12.409,12.409,0,0,1-12.4,12.4H63.954A6.322,6.322,0,0,0,58.1,84.113H51.726a6.316,6.316,0,0,0,0,12.632H58.1a6.322,6.322,0,0,0,5.853-3.955H77.993A17.137,17.137,0,0,0,95.11,75.673V67.2a2.361,2.361,0,0,0,1.871-2.309V42.137A42.184,42.184,0,0,0,54.845,0Z" transform="translate(-4.255)" fill="#f39f21"/>
</svg>
