<svg id="XMLID_834_" xmlns="http://www.w3.org/2000/svg" width="18.206" height="36.042" viewBox="0 0 18.206 36.042">
  <path id="XMLID_835_" d="M77.284,19.2h3.951V35.46a.581.581,0,0,0,.581.581h6.7a.581.581,0,0,0,.581-.581V19.272h4.542a.581.581,0,0,0,.577-.515l.69-5.988a.581.581,0,0,0-.577-.648H89.1V8.368c0-1.131.609-1.705,1.811-1.705h3.42a.581.581,0,0,0,.581-.581V.586A.581.581,0,0,0,94.328,0H89.614c-.033,0-.107,0-.216,0a9.033,9.033,0,0,0-5.907,2.227,6.194,6.194,0,0,0-2.06,5.506v4.389H77.284a.581.581,0,0,0-.581.581v5.911A.581.581,0,0,0,77.284,19.2Z" transform="translate(-76.703)" fill="#823175"/>
</svg>
