<svg id="icons-01" xmlns="http://www.w3.org/2000/svg" width="77.749" height="70" viewBox="0 0 77.749 70">
  <path id="Path_8834" data-name="Path 8834" d="M86.765,73.33c1.3,0,2.483-.011,3.667,0,1.045.011,1.513.5,1.513,1.558A11.685,11.685,0,0,1,80.694,86.273c-2.887.056-5.777.015-8.666.015q-23.041,0-46.082,0A11.61,11.61,0,0,1,14.441,77a12.413,12.413,0,0,1-.245-2.247,1.267,1.267,0,0,1,1.394-1.418c1.214-.022,2.428,0,3.775,0V38.849c0-4.281,2.7-6.991,6.963-6.993h3.407V30.94q0-5.224,0-10.448a3.9,3.9,0,0,1,4.2-4.188q19.113,0,38.228,0A3.9,3.9,0,0,1,76.4,20.546q.006,5.185,0,10.368v.944c1.234,0,2.387,0,3.541,0a6.485,6.485,0,0,1,6.827,6.8q.01,16.8,0,33.611C86.765,72.59,86.765,72.91,86.765,73.33ZM32.406,29.3V68.09H73.162c-1.4-1.407-2.7-2.727-4.03-4.011-.119-.115-.5-.061-.708.037a15.079,15.079,0,0,1-6.658,1.457q-12.473-.026-24.949-.006c-.271,0-.613.091-.794-.039-.409-.29-.963-.654-1.032-1.058a1.908,1.908,0,0,1,.634-1.322c.206-.212.706-.188,1.074-.188q8.061-.016,16.121-.007h.846c-.067.032-.132.065-.2.1-1.087-1.065-2.173-2.128-3.195-3.128a4.471,4.471,0,0,1-1.42.439c-4.1.043-8.207.026-12.313.022-1.026,0-1.61-.474-1.625-1.283-.015-.84.587-1.329,1.66-1.331q5.548-.006,11.1,0h1.677a15.024,15.024,0,0,1-.7-1.87c-.145-.619-.483-.71-1.037-.706-3.7.019-7.4.028-11.1-.015a1.966,1.966,0,0,1-1.32-.561,1.557,1.557,0,0,1-.13-1.26c.177-.617.747-.777,1.366-.775q5.266.01,10.53,0h.95a14.822,14.822,0,0,1,1.483-7.751H48.379q-5.912,0-11.826,0c-1.177,0-1.641-.448-1.643-1.6q-.01-4.9,0-9.8c0-1.115.463-1.584,1.569-1.587q6.2-.01,12.393,0c1.156,0,1.61.459,1.612,1.625.006,2.861,0,5.725,0,8.586v.764c-.03-.063-.058-.126-.089-.188,1.058-1.093,2.117-2.186,3.151-3.257a1.232,1.232,0,0,1-.392-1.513c.3-.764.95-.861,1.669-.842.835.022,1.673,0,2.511,0q6.156,0,12.313,0c.965,0,1.621.487,1.535,1.26a4.949,4.949,0,0,1-.61,1.387l.152-.3c1.054,1.091,2.106,2.184,3.011,3.119V29.3C59.946,29.3,46.208,29.3,32.406,29.3ZM89.165,75.988a2,2,0,0,0-.281-.05q-12.068,0-24.137.015a1,1,0,0,0-.712.457c-.468.818-.846,1.686-1.29,2.519a3.851,3.851,0,0,1-3.6,2.186q-6.074.01-12.149,0a3.847,3.847,0,0,1-3.6-2.184c-.394-.738-.794-1.476-1.112-2.247a1.1,1.1,0,0,0-1.212-.768c-7.749.026-15.5.017-23.246.017h-.9c.054.327.076.539.126.747a9.064,9.064,0,0,0,9.054,7q26.973.01,53.946-.011a10.616,10.616,0,0,0,2.558-.316C86.066,82.483,88.936,79.256,89.165,75.988ZM32.336,26.6H73.8V20.8c0-1.543-.361-1.9-1.9-1.907H34.239c-.188,0-.379-.009-.567,0a1.271,1.271,0,0,0-1.329,1.331C32.319,22.336,32.336,24.44,32.336,26.6Zm-2.654,13.17c-1.959-.294-2.489.143-2.489,1.965V73.23H78.863V70.789H31.583c-1.539,0-1.9-.361-1.9-1.9v-28.1C29.683,40.463,29.683,40.141,29.683,39.775Zm32.512-.1A11.623,11.623,0,1,0,73.757,51.394,11.693,11.693,0,0,0,62.194,39.671ZM24.545,73.3V56.079q0-7.49,0-14.982a3.884,3.884,0,0,1,4.08-4.065c.342,0,.686,0,1.043,0v-2.58c-1.188,0-2.318,0-3.45,0a3.92,3.92,0,0,0-4.257,4.3q0,16.843,0,33.689v.868C22.865,73.3,23.644,73.3,24.545,73.3ZM76.436,37.009c.227.011.361.022.5.022,3.277.041,4.653,1.433,4.653,4.712V73.276h2.539a3.345,3.345,0,0,0,.039-.353q0-17.33-.009-34.659a3.674,3.674,0,0,0-3.2-3.716,39.239,39.239,0,0,0-4.517-.035C76.436,35.351,76.436,36.147,76.436,37.009Zm-28.62-2.5H37.577v7.647h10.24ZM78.763,62.168c.058-.032.115-.067.173-.1V41.723c0-1.8-.578-2.266-2.439-1.944a1.784,1.784,0,0,0-.043.294q0,9.623,0,19.248a.944.944,0,0,0,.158.593C77.311,60.681,78.042,61.419,78.763,62.168ZM44.832,75.944c.31.634.574,1.16.825,1.69a1.432,1.432,0,0,0,1.418.874c4-.007,7.989.009,11.984-.024a1.577,1.577,0,0,0,1.13-.465,15.7,15.7,0,0,0,1.138-2.078C55.764,75.944,50.368,75.944,44.832,75.944ZM73.25,60.516l-1.874,1.911c1.706,1.721,3.437,3.5,5.2,5.234a1.36,1.36,0,0,0,1.97-1.874C76.8,64,75,62.252,73.25,60.516Z" transform="translate(-14.196 -16.303)" fill="#f49f21"/>
  <path id="Path_8835" data-name="Path 8835" d="M209.531,90.688c-.807,0-1.615.017-2.422,0a1.3,1.3,0,1,1,0-2.6q2.5-.026,5,0a1.306,1.306,0,1,1,0,2.606C211.254,90.705,210.392,90.688,209.531,90.688Z" transform="translate(-164.264 -72.534)" fill="#f49f21"/>
  <path id="Path_8836" data-name="Path 8836" d="M125.784,162.545c-.833,0-1.669.017-2.5,0a1.3,1.3,0,0,1-1.394-1.342,1.288,1.288,0,0,1,1.392-1.262q2.5-.029,5,0a1.3,1.3,0,1,1,0,2.6C127.45,162.563,126.617,162.545,125.784,162.545Z" transform="translate(-98.578 -128.837)" fill="#f49f21"/>
  <path id="Path_8837" data-name="Path 8837" d="M256.207,88.086c.457,0,.916-.024,1.37.006a1.3,1.3,0,0,1-.019,2.6c-.885.032-1.775.035-2.66,0a1.272,1.272,0,0,1-1.258-1.305,1.286,1.286,0,0,1,1.279-1.288C255.345,88.062,255.776,88.083,256.207,88.086Z" transform="translate(-201.814 -72.541)" fill="#f49f21"/>
  <path id="Path_8838" data-name="Path 8838" d="M112.535,41.542a1.295,1.295,0,1,1-1.268-1.3A1.309,1.309,0,0,1,112.535,41.542Z" transform="translate(-89.221 -35.058)" fill="#f49f21"/>
  <path id="Path_8839" data-name="Path 8839" d="M136.485,41.52a1.3,1.3,0,1,1-1.3-1.271A1.308,1.308,0,0,1,136.485,41.52Z" transform="translate(-107.985 -35.067)" fill="#f49f21"/>
  <path id="Path_8840" data-name="Path 8840" d="M159.163,42.84a1.3,1.3,0,1,1,1.275-1.3A1.306,1.306,0,0,1,159.163,42.84Z" transform="translate(-126.755 -35.066)" fill="#f49f21"/>
  <path id="Path_8841" data-name="Path 8841" d="M193.61,144.987a9.109,9.109,0,1,1,9.16,9.123A9.084,9.084,0,0,1,193.61,144.987Zm15.582.054a6.472,6.472,0,1,0-6.532,6.433A6.481,6.481,0,0,0,209.192,145.041Z" transform="translate(-154.777 -110.006)" fill="#f49f21"/>
</svg>
