<svg id="c14_house" xmlns="http://www.w3.org/2000/svg" width="31.601" height="28" viewBox="0 0 31.601 28">
  <path id="Path_8902" data-name="Path 8902" d="M9.82,38.2a.656.656,0,0,0,.662.706c.86,0,7.965-.01,7.965-.01l.012-6.527s-.113-1.075.93-1.075H22.7a1.025,1.025,0,0,1,1.159,1.075l-.014,6.507h7.8A.817.817,0,0,0,32.476,38V25.959l-10.99-9.775L9.82,25.96Z" transform="translate(-5.524 -10.904)" fill="#6d6d6d"/>
  <path id="Path_8903" data-name="Path 8903" d="M0,18.262s.989,1.825,3.15,0L16.06,7.34l12.1,10.854c2.5,1.8,3.438,0,3.438,0L16.06,4.116Z" transform="translate(0 -4.116)" fill="#6d6d6d"/>
  <path id="Path_8904" data-name="Path 8904" d="M59.7,11.427H56.585L56.6,15.2l3.1,2.631Z" transform="translate(-31.829 -8.229)" fill="#6d6d6d"/>
</svg>
