<svg id="XMLID_13_" xmlns="http://www.w3.org/2000/svg" width="36.722" height="36.722" viewBox="0 0 36.722 36.722">
  <path id="XMLID_17_" d="M25.783,0H10.94A10.952,10.952,0,0,0,0,10.94V25.783a10.952,10.952,0,0,0,10.94,10.94H25.783a10.952,10.952,0,0,0,10.94-10.94V10.94A10.952,10.952,0,0,0,25.783,0Zm7.246,25.783a7.246,7.246,0,0,1-7.246,7.246H10.94a7.246,7.246,0,0,1-7.246-7.246V10.94A7.246,7.246,0,0,1,10.94,3.694H25.783a7.246,7.246,0,0,1,7.246,7.246V25.783Z" fill="#823175"/>
  <path id="XMLID_81_" d="M142.5,133a9.5,9.5,0,1,0,9.5,9.5A9.508,9.508,0,0,0,142.5,133Zm0,15.3a5.8,5.8,0,1,1,5.8-5.8A5.8,5.8,0,0,1,142.5,148.3Z" transform="translate(-124.137 -124.137)" fill="#823175"/>
  <ellipse id="XMLID_83_" cx="2.276" cy="2.276" rx="2.276" ry="2.276" transform="translate(25.601 6.659)" fill="#823175"/>
</svg>
