<svg xmlns="http://www.w3.org/2000/svg" width="22.281" height="38.018" viewBox="0 0 22.281 38.018">
  <g id="location-svgrepo-com" transform="translate(-54.643)" style="mix-blend-mode: color-burn;isolation: isolate">
    <path id="Path_8986" data-name="Path 8986" d="M65.784,0A11.153,11.153,0,0,0,54.643,11.141a11.038,11.038,0,0,0,1.078,4.786c.014.032.03.064.046.1l8.417,16.3a1.8,1.8,0,0,0,3.2,0L75.8,16.027c.015-.028.028-.056.041-.085a11.037,11.037,0,0,0,1.085-4.8A11.153,11.153,0,0,0,65.784,0Zm0,16.972a5.831,5.831,0,1,1,5.831-5.831A5.838,5.838,0,0,1,65.784,16.972Z" fill="#d5d5d5"/>
    <path id="Path_8987" data-name="Path 8987" d="M104.371,249.018H95.788a1.08,1.08,0,0,0,0,2.16h8.583a1.08,1.08,0,1,0,0-2.16Z" transform="translate(-34.296 -213.16)" fill="#d5d5d5"/>
  </g>
</svg>
