<svg xmlns="http://www.w3.org/2000/svg" width="50" height="50" viewBox="0 0 50 50">
  <g id="Group_8937" data-name="Group 8937" transform="translate(-1419 -1729)">
    <g id="Ellipse_112" data-name="Ellipse 112" transform="translate(1419 1729)" fill="none" stroke="#f49f21" stroke-width="1">
      <circle cx="25" cy="25" r="25" stroke="none"/>
      <circle cx="25" cy="25" r="24.5" fill="none"/>
    </g>
    <g id="padlock-lock-svgrepo-com" transform="translate(1369.123 1738)">
      <g id="Group_8934" data-name="Group 8934" transform="translate(62.877)">
        <g id="Group_8933" data-name="Group 8933" transform="translate(0)">
          <path id="Path_123414" data-name="Path 123414" d="M86.506,15.145H83.631v-7A8.079,8.079,0,0,0,75.578,0h-1.13a8.207,8.207,0,0,0-8.206,8.139v7.006H63.508a.625.625,0,0,0-.631.561v10.1a6.236,6.236,0,0,0,6.242,6.165H80.895A6.116,6.116,0,0,0,87,25.808v-10.1A.505.505,0,0,0,86.506,15.145ZM67.364,8.139a7.084,7.084,0,0,1,7.084-7.017h1.13a6.956,6.956,0,0,1,6.932,7.021v7H81.387v-7a5.832,5.832,0,0,0-5.81-5.9h-1.13a5.961,5.961,0,0,0-5.962,5.9v7.006H67.364Zm12.9,0v7H69.608V8.139a4.838,4.838,0,0,1,4.84-4.774h1.13A4.709,4.709,0,0,1,80.265,8.143Zm5.609,17.665a4.993,4.993,0,0,1-4.98,5.043H69.119A5.113,5.113,0,0,1,64,25.808V16.267H85.875v9.541Z" transform="translate(-62.877)" fill="#f49f21"/>
        </g>
      </g>
      <g id="Group_8936" data-name="Group 8936" transform="translate(71.887 19.071)">
        <g id="Group_8935" data-name="Group 8935" transform="translate(0)">
          <path id="Path_123415" data-name="Path 123415" d="M210,305.4a2.838,2.838,0,0,0-2.84,2.8,3.254,3.254,0,0,0,1.087,2.244v3.366a.625.625,0,0,0,.631.561h2.244a.505.505,0,0,0,.491-.561v-3.366a2.844,2.844,0,0,0,1.157-2.244A2.778,2.778,0,0,0,210,305.4Zm.806,4.263a.6.6,0,0,0-.315.485v3.1h-1.122v-3.1a.531.531,0,0,0-.245-.485,1.674,1.674,0,0,1-.824-1.458,1.692,1.692,0,0,1,1.692-1.683,1.673,1.673,0,0,1,1.67,1.683A1.7,1.7,0,0,1,210.8,309.667Z" transform="translate(-207.158 -305.404)" fill="#f49f21"/>
        </g>
      </g>
    </g>
  </g>
</svg>
