<svg xmlns="http://www.w3.org/2000/svg" width="21.332" height="14.666" viewBox="0 0 21.332 14.666">
  <g id="menu-svgrepo-com" transform="translate(0 -60.152)">
    <g id="Menu" transform="translate(0 60.152)">
      <path id="Path_6" data-name="Path 6" d="M.667,61.485h20a.667.667,0,1,0,0-1.333h-20a.667.667,0,0,0,0,1.333Z" transform="translate(0 -60.152)" fill="#6e6d6d"/>
      <path id="Path_7" data-name="Path 7" d="M20.666,180.455h-20a.667.667,0,1,0,0,1.333h20a.667.667,0,1,0,0-1.333Z" transform="translate(0 -173.789)" fill="#6e6d6d"/>
      <path id="Path_8" data-name="Path 8" d="M20.666,300.758h-20a.667.667,0,0,0,0,1.333h20a.667.667,0,0,0,0-1.333Z" transform="translate(0 -287.425)" fill="#6e6d6d"/>
    </g>
  </g>
</svg>
