<svg id="Menu" xmlns="http://www.w3.org/2000/svg" width="28" height="19.25" viewBox="0 0 28 19.25">
  <path id="Path_8911" data-name="Path 8911" d="M.875,61.9h26.25a.875.875,0,0,0,0-1.75H.875a.875.875,0,1,0,0,1.75Z" transform="translate(0 -60.152)" fill="#6d6d6d"/>
  <path id="Path_8912" data-name="Path 8912" d="M27.125,180.455H.875a.875.875,0,1,0,0,1.75h26.25a.875.875,0,1,0,0-1.75Z" transform="translate(0 -171.705)" fill="#6d6d6d"/>
  <path id="Path_8913" data-name="Path 8913" d="M27.125,300.758H.875a.875.875,0,0,0,0,1.75h26.25a.875.875,0,0,0,0-1.75Z" transform="translate(0 -283.258)" fill="#6d6d6d"/>
</svg>
