<svg id="online-video-svgrepo-com" xmlns="http://www.w3.org/2000/svg" width="311.354" height="250.385" viewBox="0 0 311.354 250.385">
  <g id="Group_53832" data-name="Group 53832" transform="translate(0 0)">
    <path id="Path_8971" data-name="Path 8971" d="M295.454,230.078H15.9A15.915,15.915,0,0,1,0,214.184V63.866a15.915,15.915,0,0,1,15.9-15.9H295.454a15.919,15.919,0,0,1,15.9,15.9V214.184A15.915,15.915,0,0,1,295.454,230.078ZM15.9,60.809a3.079,3.079,0,0,0-3.061,3.054V214.181a3.079,3.079,0,0,0,3.061,3.057H295.454a3.061,3.061,0,0,0,3.057-3.057V63.866a3.061,3.061,0,0,0-3.057-3.054Z" transform="translate(0 -47.969)" fill="#b1b0af"/>
  </g>
  <g id="Group_53833" data-name="Group 53833" transform="translate(118.958 41.544)">
    <path id="Path_8972" data-name="Path 8972" d="M190.693,211.658a6.534,6.534,0,0,1-3.479-5.705V119.78a6.42,6.42,0,0,1,10.142-5.234l60.592,43.088a6.42,6.42,0,0,1,0,10.469l-60.592,43.085a5.878,5.878,0,0,1-6.663.471Zm9.363-79.439v61.273l43.106-30.642Z" transform="translate(-187.214 -113.356)" fill="#b1b0af"/>
  </g>
  <path id="Path_8973" data-name="Path 8973" d="M304.931,381.027H182.214a25.414,25.414,0,0,0-49.181,0H6.42a6.42,6.42,0,0,0,0,12.84H133.035a25.414,25.414,0,0,0,49.181,0H304.931a6.42,6.42,0,0,0,0-12.84Zm-147.31,18.995a9.374,9.374,0,1,1,0,.006Z" transform="translate(0 -162.478)" fill="#b1b0af"/>
</svg>
