<svg xmlns="http://www.w3.org/2000/svg" width="28.739" height="28.739" viewBox="0 0 28.739 28.739">
  <g id="Group_9211" data-name="Group 9211" transform="translate(-193 -439)">
    <g id="Group_9204" data-name="Group 9204" transform="translate(193 439)">
      <g id="Group_9203" data-name="Group 9203">
        <path id="Path_8906" data-name="Path 8906" d="M0,0V19.159H28.739V0ZM27.542,17.962H1.2V1.2H27.542Z" fill="#6d6d6d"/>
      </g>
    </g>
    <g id="Group_9206" data-name="Group 9206" transform="translate(204.376 444.132)">
      <g id="Group_9205" data-name="Group 9205">
        <path id="Path_8907" data-name="Path 8907" d="M194.56,87.77v8.3l7.185-4.148Zm1.2,2.075,3.592,2.074-3.592,2.074Z" transform="translate(-194.56 -87.77)" fill="#6d6d6d"/>
      </g>
    </g>
    <g id="Group_9208" data-name="Group 9208" transform="translate(193 461.752)">
      <g id="Group_9207" data-name="Group 9207">
        <path id="Path_8908" data-name="Path 8908" d="M10.717,391.515a2.994,2.994,0,0,0-5.866,0H0v1.2H4.85a2.994,2.994,0,0,0,5.866,0H28.739v-1.2ZM7.784,393.91a1.8,1.8,0,1,1,1.8-1.8A1.8,1.8,0,0,1,7.784,393.91Z" transform="translate(0 -389.12)" fill="#6d6d6d"/>
      </g>
    </g>
  </g>
</svg>
