<svg xmlns="http://www.w3.org/2000/svg" width="101.12" height="81.322" viewBox="0 0 101.12 81.322">
  <g id="online-video-svgrepo-com" transform="translate(0 -47.969)">
    <g id="Group_53832" data-name="Group 53832" transform="translate(0 47.969)">
      <path id="Path_8971" data-name="Path 8971" d="M95.957,107.114H5.164A5.169,5.169,0,0,1,0,101.952V53.132a5.169,5.169,0,0,1,5.164-5.163H95.957a5.17,5.17,0,0,1,5.164,5.163v48.82A5.169,5.169,0,0,1,95.957,107.114ZM5.164,52.139a1,1,0,0,0-.994.992v48.82a1,1,0,0,0,.994.993H95.957a.994.994,0,0,0,.993-.993V53.132a.994.994,0,0,0-.993-.992Z" transform="translate(0 -47.969)" fill="#f39f21"/>
    </g>
    <g id="Group_53833" data-name="Group 53833" transform="translate(38.635 61.463)">
      <path id="Path_8972" data-name="Path 8972" d="M188.344,145.282a2.122,2.122,0,0,1-1.13-1.853V115.442a2.085,2.085,0,0,1,3.294-1.7l19.679,13.994a2.085,2.085,0,0,1,0,3.4l-19.679,13.993A1.909,1.909,0,0,1,188.344,145.282Zm3.041-25.8v19.9l14-9.952Z" transform="translate(-187.214 -113.357)" fill="#f39f21"/>
    </g>
    <path id="Path_8973" data-name="Path 8973" d="M99.035,368.2H59.179a8.254,8.254,0,0,0-15.973,0H2.085a2.085,2.085,0,0,0,0,4.17H43.207a8.254,8.254,0,0,0,15.973,0H99.035a2.085,2.085,0,0,0,0-4.17Zm-47.843,6.169a4.084,4.084,0,1,1,4.084-4.084A4.089,4.089,0,0,1,51.193,374.371Z" transform="translate(0 -249.251)" fill="#f39f21"/>
  </g>
</svg>
