<svg xmlns="http://www.w3.org/2000/svg" width="27.971" height="27.968" viewBox="0 0 27.971 27.968">
  <path id="phone-svgrepo-com" d="M27.671,21.214c-1.041-1.968-4.657-4.1-4.816-4.2a2.873,2.873,0,0,0-1.4-.4,1.746,1.746,0,0,0-1.561.871,17.294,17.294,0,0,1-1.344,1.487,2.236,2.236,0,0,1-3.264-.326L9.327,12.689A2.244,2.244,0,0,1,9,9.427a17.465,17.465,0,0,1,1.488-1.346,1.724,1.724,0,0,0,.8-1.034,2.564,2.564,0,0,0-.338-1.935c-.09-.153-2.225-3.77-4.192-4.81A2.558,2.558,0,0,0,3.753.753L2.437,2.069A7.192,7.192,0,0,0,.2,9.079a14.829,14.829,0,0,0,4.295,6.776l7.625,7.625c2.98,2.98,5.82,4.491,8.443,4.491h0A7.467,7.467,0,0,0,25.9,25.535l1.316-1.316A2.545,2.545,0,0,0,27.671,21.214Z" transform="translate(0 -0.004)" fill="#d5d5d5" style="mix-blend-mode: color-burn;isolation: isolate"/>
</svg>
