<svg xmlns="http://www.w3.org/2000/svg" width="98.499" height="90.331" viewBox="0 0 98.499 90.331">
  <g id="_-Product-Icons" data-name="ðŸ”-Product-Icons" transform="translate(-2 -3)">
    <g id="ic_fluent_library_28_regular" transform="translate(2 3)">
      <path id="_-Color" data-name="ðŸŽ¨-Color" d="M10.211,3h8.171a8.216,8.216,0,0,1,8.189,7.6l.023.613V85.118a8.216,8.216,0,0,1-7.6,8.189l-.613.023H10.211a8.216,8.216,0,0,1-8.189-7.6L2,85.118V11.212A8.216,8.216,0,0,1,9.6,3.023L10.211,3h0ZM38.932,3h8.191a8.216,8.216,0,0,1,8.189,7.6l.023.613V85.118a8.216,8.216,0,0,1-7.6,8.189l-.613.023H38.932a8.213,8.213,0,0,1-8.189-7.6l-.023-.613V11.212a8.213,8.213,0,0,1,7.6-8.189L38.932,3h0Zm37.51,8.32A8.218,8.218,0,0,1,84.214,16.9l.189.646L100.252,81.12a8.212,8.212,0,0,1-5.389,9.786l-.589.171-8.06,2.008a8.314,8.314,0,0,1-1.991.246,8.219,8.219,0,0,1-7.772-5.583l-.189-.646L60.408,23.531A8.213,8.213,0,0,1,65.8,13.744l.589-.17,8.06-2.008A8.315,8.315,0,0,1,76.442,11.32ZM18.382,9.159H10.211a2.061,2.061,0,0,0-2.02,1.685l-.033.368V85.118a2.061,2.061,0,0,0,1.685,2.02l.368.033h8.171a2.057,2.057,0,0,0,2.02-1.685l.033-.368V11.212a2.058,2.058,0,0,0-1.684-2.02Zm28.741,0H38.932a2.057,2.057,0,0,0-2.02,1.685l-.033.368V85.118a2.058,2.058,0,0,0,1.684,2.02l.369.033h8.191a2.057,2.057,0,0,0,2.02-1.685l.033-.368V11.212a2.058,2.058,0,0,0-1.684-2.02Zm29.318,8.32-.253.015h0l-.253.046-8.056,2.008a2.055,2.055,0,0,0-1.552,2.123l.057.365L82.235,85.612a2.058,2.058,0,0,0,1.987,1.56l.252-.016h0l.249-.05,8.06-2.008a2.052,2.052,0,0,0,1.552-2.122l-.057-.366L78.425,19.035A2.045,2.045,0,0,0,76.442,17.479Z" transform="translate(-2 -3)" fill="#f39f21"/>
    </g>
  </g>
</svg>
