<svg id="Group_41" data-name="Group 41" xmlns="http://www.w3.org/2000/svg" width="38.286" height="27.633" viewBox="0 0 38.286 27.633">
  <path id="Path_108" data-name="Path 108" d="M478.326,55.3a28.741,28.741,0,0,1-2.88,8.582.784.784,0,0,0,1.064,1.064c8.012-4.666,11.528-11.481,11.956-16.936.38-4.714-2.832-9.561-7.708-10.445a8.964,8.964,0,1,0-2.443,17.744Z" transform="translate(-470.198 -37.417)" fill="#f49f21"/>
  <path id="Path_109" data-name="Path 109" d="M499.356,55.3a28.743,28.743,0,0,1-2.88,8.582.784.784,0,0,0,1.065,1.064c8.012-4.666,11.528-11.481,11.956-16.936.38-4.714-2.832-9.561-7.708-10.445a8.964,8.964,0,1,0-2.443,17.744Z" transform="translate(-471.241 -37.417)" fill="#f49f21"/>
</svg>
