<svg xmlns="http://www.w3.org/2000/svg" width="33.605" height="36.307" viewBox="0 0 33.605 36.307">
  <path id="share-svgrepo-com" d="M35.212,22.607a6.838,6.838,0,0,0-5.27,2.48l-8.18-4.645a6.835,6.835,0,0,0,0-4.575l8.18-4.646a6.842,6.842,0,1,0-1.185-2.083l-8.18,4.646a6.85,6.85,0,1,0,0,8.741l8.18,4.645a6.849,6.849,0,1,0,6.456-4.563Zm0-20.21A4.454,4.454,0,1,1,30.759,6.85,4.457,4.457,0,0,1,35.212,2.4Zm-19.9,20.21a4.453,4.453,0,1,1,4.452-4.453A4.458,4.458,0,0,1,15.307,22.607Zm19.9,11.3a4.453,4.453,0,1,1,4.452-4.453A4.458,4.458,0,0,1,35.212,33.911Z" transform="translate(-8.456)" fill="#e58c00"/>
</svg>
