<svg id="icons-03" xmlns="http://www.w3.org/2000/svg" width="70" height="70" viewBox="0 0 70 70">
  <path id="Path_8845" data-name="Path 8845" d="M105.076,251.653a1.554,1.554,0,0,1-1.51.746q-33.486-.021-66.972-.012c-1.222,0-1.517-.323-1.517-1.656q0-6.674,0-13.346c0-3.378,2.17-5.887,5.283-6.122a6.565,6.565,0,0,1,3.63.644,8.338,8.338,0,0,0,8.155-.169,5.662,5.662,0,0,1,3.253-.463c.541.029.8-.043,1.019-.684a5.841,5.841,0,0,1,5.382-4.35,7.169,7.169,0,0,1,3.955.715c3.031,1.535,6.075,1.228,9.166-.176a6.232,6.232,0,0,1,8.818,3.806c.194.658.471.736,1.015.682a6.288,6.288,0,0,1,3.623.646,9.071,9.071,0,0,0,8.182-.128,5.822,5.822,0,0,1,8.367,3.989,2.864,2.864,0,0,0,.152.387Q105.076,243.905,105.076,251.653Zm-23.293-1.665a4.187,4.187,0,0,0,.053-.432c0-5.678.084-11.358-.04-17.033-.077-3.59-3.4-4.694-5.8-3.587a12.542,12.542,0,0,1-11.4.1,5.044,5.044,0,0,0-3.39-.3c-1.847.378-2.925,2.019-2.93,4.21-.013,5.48,0,10.963,0,16.444,0,.188.031.375.048.594Zm-25.793-.012v-4.951c0-3.516.007-7.032-.013-10.545,0-.259-.2-.744-.308-.739a6.323,6.323,0,0,0-2.523.257,11.128,11.128,0,0,1-10.042.131,4.822,4.822,0,0,0-2.23-.489c-2.239.045-3.6,1.5-3.605,3.929q0,5.826,0,11.652v.76C43.551,249.976,49.719,249.976,55.99,249.976Zm46.816,0c.02-.159.042-.254.044-.349,0-4.105.068-8.212-.018-12.315a3.544,3.544,0,0,0-5.223-3.333,11.509,11.509,0,0,1-10.033.238,5.909,5.909,0,0,0-2.56-.544c-.638,0-.863.185-.858.912.029,4.868.013,9.733.015,14.6,0,.259.029.516.046.789C90.449,249.971,96.6,249.971,102.806,249.971Z" transform="translate(-35.076 -182.399)" fill="#f49f21"/>
  <path id="Path_8846" data-name="Path 8846" d="M149.276,18.72a6.834,6.834,0,0,1,.836,1.162q1.493,3.36,2.9,6.759a1.052,1.052,0,0,0,1.012.753c2.373.195,4.744.418,7.117.63.221.019.485-.033.651.071.387.245.924.506,1.031.869a1.53,1.53,0,0,1-.4,1.271c-1.3,1.235-2.677,2.387-4.027,3.568-.592.518-1.157,1.071-1.786,1.539a1,1,0,0,0-.385,1.193c.573,2.433,1.114,4.872,1.68,7.307a1.325,1.325,0,0,1-.423,1.582A1.343,1.343,0,0,1,155.9,45.3c-2.148-1.288-4.309-2.551-6.443-3.863a1.03,1.03,0,0,0-1.252.009c-2.136,1.3-4.3,2.566-6.443,3.856a1.259,1.259,0,0,1-2-1.466c.565-2.435,1.109-4.875,1.682-7.307a1.043,1.043,0,0,0-.387-1.193c-1.91-1.623-3.782-3.29-5.671-4.937a1.356,1.356,0,0,1-.63-1.318,1.274,1.274,0,0,1,1.337-1.036c2.373-.209,4.744-.444,7.12-.606a1.585,1.585,0,0,0,1.606-1.136c.846-2.169,1.791-4.3,2.734-6.426a6.819,6.819,0,0,1,.836-1.159Zm-.458,4.352c-.848,1.977-1.623,3.751-2.371,5.535a1.55,1.55,0,0,1-1.5,1.079c-1.1.048-2.2.181-3.3.29-.855.086-1.708.188-2.72.3,1.292,1.128,2.447,2.117,3.58,3.131,1.936,1.729,1.836,1.264,1.233,3.858-.349,1.5-.67,3-1.036,4.649,1.76-1.048,3.4-1.974,4.989-2.989a1.932,1.932,0,0,1,2.364.01c1.378.9,2.815,1.7,4.231,2.537.152.09.323.15.546.254a3.1,3.1,0,0,0-.033-.454c-.4-1.765-.789-3.535-1.223-5.29a1.6,1.6,0,0,1,.582-1.758c1.342-1.152,2.67-2.321,4-3.487.131-.114.24-.257.437-.468-1.713-.152-3.295-.361-4.884-.416a2.669,2.669,0,0,1-2.87-1.948C150.323,26.308,149.554,24.794,148.817,23.072Z" transform="translate(-113.829 -18.72)" fill="#f49f21"/>
  <path id="Path_8847" data-name="Path 8847" d="M261.4,66.54a1.29,1.29,0,0,1,1.261.907c.668,1.582,1.361,3.152,2.022,4.735a.8.8,0,0,0,.8.577c1.715.116,3.426.29,5.138.447a1.27,1.27,0,0,1,1.223.9,1.233,1.233,0,0,1-.513,1.356c-1.276,1.119-2.542,2.247-3.832,3.347a.849.849,0,0,0-.342,1c.413,1.639.741,3.3,1.133,4.946a1.281,1.281,0,0,1-.4,1.459,1.231,1.231,0,0,1-1.506-.031c-1.451-.874-2.917-1.722-4.362-2.611a.88.88,0,0,0-1.067,0c-1.421.877-2.867,1.71-4.3,2.573a1.3,1.3,0,0,1-1.575.083,1.33,1.33,0,0,1-.406-1.532c.354-1.58.687-3.162,1.088-4.73a1.07,1.07,0,0,0-.418-1.257c-1.247-1.038-2.44-2.138-3.675-3.19a1.3,1.3,0,0,1-.525-1.487,1.289,1.289,0,0,1,1.276-.827c1.713-.15,3.428-.285,5.136-.475a.984.984,0,0,0,.665-.5c.71-1.563,1.378-3.143,2.048-4.725A1.327,1.327,0,0,1,261.4,66.54Zm-3.765,16.187c1.033-.613,1.974-1.14,2.879-1.718a1.7,1.7,0,0,1,2.045.017c.831.544,1.708,1.017,2.727,1.618-.24-1.038-.39-1.9-.641-2.73a2.147,2.147,0,0,1,.905-2.67,24.448,24.448,0,0,0,2.064-1.81c-1.1-.109-2-.259-2.9-.271a1.9,1.9,0,0,1-2.012-1.361c-.33-.929-.774-1.817-1.238-2.882C261,72,260.556,72.9,260.221,73.838a1.831,1.831,0,0,1-1.9,1.295c-.965.033-1.924.169-3.057.276.967.848,1.786,1.577,2.616,2.3a1.417,1.417,0,0,1,.53,1.558C258.128,80.349,257.917,81.454,257.639,82.727Z" transform="translate(-205.318 -56.312)" fill="#f49f21"/>
  <path id="Path_8848" data-name="Path 8848" d="M65.35,86.469a7.433,7.433,0,0,1-.755-.361c-1.4-.822-2.8-1.639-4.172-2.5a.93.93,0,0,0-1.131-.009c-1.421.877-2.867,1.71-4.3,2.575a1.268,1.268,0,0,1-1.57.048,1.285,1.285,0,0,1-.387-1.461c.392-1.644.727-3.3,1.133-4.946a.794.794,0,0,0-.292-.941c-1.29-1.1-2.554-2.233-3.832-3.35a1.265,1.265,0,0,1-.565-1.4,1.361,1.361,0,0,1,1.373-.91c1.665-.138,3.326-.318,4.991-.43a.809.809,0,0,0,.8-.587c.63-1.518,1.29-3.022,1.929-4.535.24-.565.518-1.079,1.233-1.093.751-.017,1.05.494,1.3,1.1.634,1.516,1.3,3.017,1.936,4.533a.8.8,0,0,0,.8.582c1.715.112,3.426.287,5.138.447a1.232,1.232,0,0,1,1.2.824,1.277,1.277,0,0,1-.477,1.44c-1.266,1.09-2.506,2.212-3.787,3.288a.988.988,0,0,0-.373,1.14c.394,1.594.753,3.2,1.1,4.8C66.873,85.766,66.407,86.476,65.35,86.469ZM59.827,70.935c-.439,1.017-.869,1.848-1.162,2.727a2,2,0,0,1-2.15,1.5c-.9,0-1.8.166-2.884.278.945.824,1.7,1.52,2.5,2.171a1.652,1.652,0,0,1,.6,1.889c-.268,1.007-.458,2.036-.722,3.236,1-.594,1.872-1.048,2.67-1.6a1.925,1.925,0,0,1,2.435.019c.779.532,1.618.976,2.532,1.52-.257-1.152-.442-2.186-.725-3.193a1.624,1.624,0,0,1,.615-1.874c.8-.663,1.563-1.371,2.456-2.159-1.15-.1-2.124-.228-3.1-.273A1.735,1.735,0,0,1,61.138,74C60.763,73.014,60.314,72.064,59.827,70.935Z" transform="translate(-46.016 -56.334)" fill="#f49f21"/>
  <path id="Path_8849" data-name="Path 8849" d="M164.412,164.865a9.238,9.238,0,1,1,9.234-9.26A9.325,9.325,0,0,1,164.412,164.865Zm-.048-2.411a6.828,6.828,0,1,0-6.785-6.733A6.8,6.8,0,0,0,164.365,162.454Z" transform="translate(-129.399 -119.007)" fill="#f49f21"/>
  <path id="Path_8850" data-name="Path 8850" d="M66.021,174.98a8.493,8.493,0,0,1-.048,16.986,8.493,8.493,0,1,1,.048-16.986ZM66,189.53a6.073,6.073,0,1,0-6.108-5.991A6.055,6.055,0,0,0,66,189.53Z" transform="translate(-52.173 -141.373)" fill="#f49f21"/>
  <path id="Path_8851" data-name="Path 8851" d="M267.657,174.979a8.492,8.492,0,1,1-8.448,8.5A8.527,8.527,0,0,1,267.657,174.979Zm-.028,14.551a6.072,6.072,0,1,0-6.032-5.894A6.092,6.092,0,0,0,267.629,189.53Z" transform="translate(-211.512 -141.373)" fill="#f49f21"/>
</svg>
