<svg id="icons-05" xmlns="http://www.w3.org/2000/svg" width="51.166" height="70" viewBox="0 0 51.166 70">
  <path id="Path_8857" data-name="Path 8857" d="M136.741,46.06c-1.019.3-2.04.581-3.05.9a4.984,4.984,0,0,0-.981.472,1,1,0,0,0-.48,1.382,1.052,1.052,0,0,0,1.406.462,17.336,17.336,0,0,1,2.488-.9,8.876,8.876,0,0,1,9.263,3.233,9.011,9.011,0,0,1,1.271,9.74c-.061.146-.141.286-.2.432a1.015,1.015,0,0,0,.488,1.379.958.958,0,0,0,1.366-.507,16.046,16.046,0,0,0,1.1-3.347,11.379,11.379,0,0,0-9.013-13.04c-.308-.069-.615-.141-.92-.212Z" transform="translate(-107.596 -46.06)" fill="#f49f21"/>
  <path id="Path_8858" data-name="Path 8858" d="M180.454,79.281c-3.682-1.695-6.127-1.034-8.008,2.143a5.337,5.337,0,0,0-8.851,3.069A5.631,5.631,0,0,0,159.7,83.48a5.2,5.2,0,0,0-4.546,4.87c-.027,7.04-.072,14.082.032,21.122a29.277,29.277,0,0,0,2.212,10.149,6.719,6.719,0,0,1,.411,2.183c.056,1.936.019,3.873.019,5.809,0,.2-.008.411.008.615a1.033,1.033,0,1,0,2.064-.034c.021-1.186-.066-2.374.021-3.554a18.566,18.566,0,0,0-1.355-8.119,23.643,23.643,0,0,1-1.369-8.31c-.04-6.472-.016-12.942-.011-19.414a3.172,3.172,0,0,1,2.265-3.143,3.016,3.016,0,0,1,3.523,1.255,5.094,5.094,0,0,1,.57,2.058c.093,1.04.016,2.1.029,3.143.011.828.371,1.239,1.04,1.233s1.029-.448,1.032-1.255c.008-2.279-.008-4.557.008-6.836a3.165,3.165,0,0,1,6.215-.836,4.483,4.483,0,0,1,.117,1.149c.011,2.1,0,4.194.011,6.289a1.537,1.537,0,0,0,.13.857A1.362,1.362,0,0,0,173,93.3a1.539,1.539,0,0,0,.96-.573c.159-.186.133-.562.135-.854.011-2.8-.008-5.6.019-8.408a3.14,3.14,0,0,1,5.767-1.65,3.95,3.95,0,0,1,.536,1.854c.056,2.756.021,5.515.029,8.271,0,.268-.024.631.13.783a2.017,2.017,0,0,0,1.032.589c.472.066.8-.3.875-.78a5.462,5.462,0,0,0,.042-.886q0-10.938,0-21.875a3.674,3.674,0,0,1,.66-2.382,3.182,3.182,0,0,1,5.719,1.981q.012,7.313,0,14.629c0,.706-.005,1.414,0,2.119.008.745.39,1.188,1.013,1.2s1.034-.43,1.034-1.17c0-5.7.016-11.393-.016-17.09a5.2,5.2,0,0,0-4.6-4.968,5.259,5.259,0,0,0-5.764,4.13,8.783,8.783,0,0,0-.133,1.56C180.449,72.92,180.454,76.061,180.454,79.281Z" transform="translate(-155.121 -59.289)" fill="#f49f21"/>
  <path id="Path_8859" data-name="Path 8859" d="M104.107,169.111v-6.968c0-.228.008-.456-.008-.684a.982.982,0,0,0-1.019-.968.968.968,0,0,0-1.016.976c-.016,3.029-.021,6.058.005,9.09a1.485,1.485,0,0,0,1.1,1.414,1.566,1.566,0,0,0,1.785-.5q2.117-2.28,4.215-4.573c.724-.788,1.438-1.589,2.175-2.363a3.391,3.391,0,0,1,4.735-.4,3.356,3.356,0,0,1,.61,4.653q-5.515,8.1-11.064,16.178a11.4,11.4,0,0,1-6.777,4.637,1.648,1.648,0,0,0-1.485,1.878q-.016,3.692,0,7.382c0,.828.361,1.26,1.005,1.271.674.011,1.061-.451,1.064-1.294.005-2.39,0-4.78,0-7.212.57-.191,1.133-.355,1.674-.568a13.586,13.586,0,0,0,6.355-5.082q5.459-7.973,10.9-15.952a5.462,5.462,0,0,0-3.475-8.634,5.3,5.3,0,0,0-5.109,1.785q-2.523,2.741-5.042,5.483c-.164.178-.326.361-.491.538C104.2,169.169,104.155,169.14,104.107,169.111Z" transform="translate(-68.254 -130.137)" fill="#f49f21"/>
  <path id="Path_8860" data-name="Path 8860" d="M227.783,66.535a17.889,17.889,0,0,0,1.589,7.268c.358.769.891,1.053,1.488.78s.748-.838.424-1.578a15.507,15.507,0,0,1,0-12.95c.321-.737.154-1.3-.435-1.573s-1.125,0-1.456.719A17.962,17.962,0,0,0,227.783,66.535Z" transform="translate(-214.878 -55.113)" fill="#f49f21"/>
  <path id="Path_8861" data-name="Path 8861" d="M112.354,66.581a17.021,17.021,0,0,0-1.618-7.4c-.223-.483-.576-.859-1.1-.7a1.893,1.893,0,0,0-.891.79c-.109.164.005.533.109.769a15.5,15.5,0,0,1-.005,13.085,1.052,1.052,0,0,0,.451,1.5c.586.265,1.135.008,1.462-.708A16.962,16.962,0,0,0,112.354,66.581Z" transform="translate(-64.199 -55.159)" fill="#f49f21"/>
  <path id="Path_8862" data-name="Path 8862" d="M202.57,69.043a10.78,10.78,0,0,0,1.106,4.785c.377.775.894,1.048,1.483.775.618-.286.759-.846.409-1.623a9.236,9.236,0,0,1,.809-9.5c.469-.7.427-1.3-.119-1.671s-1.093-.2-1.594.509A11.179,11.179,0,0,0,202.57,69.043Z" transform="translate(-183.441 -57.489)" fill="#f49f21"/>
</svg>
