<svg xmlns="http://www.w3.org/2000/svg" width="31" height="31.001" viewBox="0 0 31 31.001">
  <g id="time-svgrepo-com" transform="translate(-0.001)">
    <path id="Path_123412" data-name="Path 123412" d="M15.5,0A15.5,15.5,0,1,0,31,15.5,15.518,15.518,0,0,0,15.5,0Zm0,28.76A13.259,13.259,0,1,1,28.76,15.5,13.275,13.275,0,0,1,15.5,28.76Z" fill="#fff"/>
    <path id="Path_123413" data-name="Path 123413" d="M44.106,28.831h-.017l-3.347.05v-8.76a1.121,1.121,0,1,0-2.241,0v9.9s0,0,0,.007,0,.007,0,.01a1.093,1.093,0,0,0,.015.132c0,.027,0,.055.009.082a1.06,1.06,0,0,0,.043.138c.008.024.013.048.023.071a1.16,1.16,0,0,0,.071.131c.012.019.02.04.032.059a1.182,1.182,0,0,0,.1.116c.014.016.026.034.041.049a1.177,1.177,0,0,0,.118.1c.016.012.031.027.048.039a1.085,1.085,0,0,0,.14.077c.017.008.032.019.049.026a1.15,1.15,0,0,0,.176.055c.011,0,.022.008.033.01a1.138,1.138,0,0,0,.224.023h.017l4.485-.067a1.121,1.121,0,0,0-.016-2.241Z" transform="translate(-24.12 -11.903)" fill="#fff"/>
  </g>
</svg>
