<svg xmlns="http://www.w3.org/2000/svg" width="36.081" height="29.541" viewBox="0 0 36.081 29.541">
  <path id="twitter-svgrepo-com" d="M35.263,49.815a13.688,13.688,0,0,1-1.745.636,7.714,7.714,0,0,0,1.571-2.762.582.582,0,0,0-.851-.678,13.732,13.732,0,0,1-4.06,1.6,7.749,7.749,0,0,0-13.167,5.536,7.9,7.9,0,0,0,.063,1A19.83,19.83,0,0,1,3.464,47.932a.582.582,0,0,0-.954.075A7.757,7.757,0,0,0,3.3,56.922a6.563,6.563,0,0,1-1.037-.463.582.582,0,0,0-.864.5c0,.034,0,.069,0,.1a7.773,7.773,0,0,0,3.792,6.661q-.3-.029-.589-.086a.582.582,0,0,0-.663.749,7.743,7.743,0,0,0,5.674,5.192A13.7,13.7,0,0,1,2.29,71.665a14.008,14.008,0,0,1-1.641-.1.582.582,0,0,0-.383,1.068,20.888,20.888,0,0,0,11.3,3.311,20.1,20.1,0,0,0,15.569-6.838,21.674,21.674,0,0,0,5.4-14.126c0-.213,0-.427-.01-.641a15.057,15.057,0,0,0,3.465-3.671.582.582,0,0,0-.719-.856Z" transform="translate(0 -46.406)" fill="#823175"/>
</svg>
