<svg id="video-svgrepo-com" xmlns="http://www.w3.org/2000/svg" width="39.471" height="34.137" viewBox="0 0 39.471 34.137">
  <path id="Path_123395" data-name="Path 123395" d="M8,0H1.6A1.548,1.548,0,0,0,0,1.6V32.537a1.548,1.548,0,0,0,1.6,1.6H37.871a1.548,1.548,0,0,0,1.6-1.6V1.6a1.548,1.548,0,0,0-1.6-1.6H8ZM1.067,32.537V1.6A.49.49,0,0,1,1.6,1.067H7.468v32H1.6A.49.49,0,0,1,1.067,32.537Zm7.468.533v-32h22.4v32ZM38.4,1.6V32.537a.49.49,0,0,1-.533.533H32v-32h5.867A.49.49,0,0,1,38.4,1.6Z" fill="#fff"/>
  <path id="Path_123396" data-name="Path 123396" d="M14.829,10.09a.533.533,0,0,0-.829.444v12.8a.534.534,0,0,0,.282.47.54.54,0,0,0,.252.063.531.531,0,0,0,.3-.09l9.6-6.4a.533.533,0,0,0,0-.888Zm.238,12.249V11.53l8.107,5.4Z" transform="translate(0.935 0.668)" fill="#fff"/>
  <path id="Path_123397" data-name="Path 123397" d="M5.167,8H3.033a.533.533,0,0,0,0,1.067H5.167A.533.533,0,0,0,5.167,8Z" transform="translate(0.167 0.534)" fill="#fff"/>
  <path id="Path_123398" data-name="Path 123398" d="M3.033,5.067H5.167A.533.533,0,0,0,5.167,4H3.033a.533.533,0,0,0,0,1.067Z" transform="translate(0.167 0.267)" fill="#fff"/>
  <path id="Path_123399" data-name="Path 123399" d="M5.167,12H3.033a.533.533,0,0,0,0,1.067H5.167a.533.533,0,0,0,0-1.067Z" transform="translate(0.167 0.802)" fill="#fff"/>
  <path id="Path_123400" data-name="Path 123400" d="M5.167,16H3.033a.533.533,0,1,0,0,1.067H5.167a.533.533,0,1,0,0-1.067Z" transform="translate(0.167 1.069)" fill="#fff"/>
  <path id="Path_123401" data-name="Path 123401" d="M5.167,20H3.033a.533.533,0,1,0,0,1.067H5.167a.533.533,0,1,0,0-1.067Z" transform="translate(0.167 1.336)" fill="#fff"/>
  <path id="Path_123402" data-name="Path 123402" d="M5.167,24H3.033a.533.533,0,0,0,0,1.067H5.167a.533.533,0,0,0,0-1.067Z" transform="translate(0.167 1.603)" fill="#fff"/>
  <path id="Path_123403" data-name="Path 123403" d="M5.167,28H3.033a.533.533,0,1,0,0,1.067H5.167a.533.533,0,0,0,0-1.067Z" transform="translate(0.167 1.87)" fill="#fff"/>
  <path id="Path_123404" data-name="Path 123404" d="M32.033,9.067h2.134a.533.533,0,0,0,0-1.067H32.033a.533.533,0,0,0,0,1.067Z" transform="translate(2.104 0.534)" fill="#fff"/>
  <path id="Path_123405" data-name="Path 123405" d="M32.033,5.067h2.134a.533.533,0,0,0,0-1.067H32.033a.533.533,0,0,0,0,1.067Z" transform="translate(2.104 0.267)" fill="#fff"/>
  <path id="Path_123406" data-name="Path 123406" d="M32.033,13.067h2.134a.533.533,0,0,0,0-1.067H32.033a.533.533,0,0,0,0,1.067Z" transform="translate(2.104 0.802)" fill="#fff"/>
  <path id="Path_123407" data-name="Path 123407" d="M32.033,17.067h2.134a.533.533,0,0,0,0-1.067H32.033a.533.533,0,1,0,0,1.067Z" transform="translate(2.104 1.069)" fill="#fff"/>
  <path id="Path_123408" data-name="Path 123408" d="M32.033,21.067h2.134a.533.533,0,0,0,0-1.067H32.033a.533.533,0,1,0,0,1.067Z" transform="translate(2.104 1.336)" fill="#fff"/>
  <path id="Path_123409" data-name="Path 123409" d="M32.033,25.067h2.134a.533.533,0,0,0,0-1.067H32.033a.533.533,0,0,0,0,1.067Z" transform="translate(2.104 1.603)" fill="#fff"/>
  <path id="Path_123410" data-name="Path 123410" d="M34.167,28H32.033a.533.533,0,1,0,0,1.067h2.134a.533.533,0,0,0,0-1.067Z" transform="translate(2.104 1.87)" fill="#fff"/>
</svg>
