<svg id="clapperboard" xmlns="http://www.w3.org/2000/svg" width="64.633" height="70" viewBox="0 0 64.633 70">
  <path id="Path_1" data-name="Path 1" d="M72.054,70H23.24a16.731,16.731,0,0,1-2.322-.74,8.2,8.2,0,0,1-4.971-7.89c-.007-10.365-.033-20.73.018-31.1a26.158,26.158,0,0,0-.932-7.4,8.276,8.276,0,0,1,5.9-10.263Q34.715,8.825,48.5,5.062,57.817,2.519,67.132,0h2.051a4.43,4.43,0,0,0,.441.142,8.258,8.258,0,0,1,5.649,3.943A1.36,1.36,0,0,1,74.2,6.238a1.558,1.558,0,0,1-1.36-.879,5.58,5.58,0,0,0-6.3-2.4c-.747.2-1.493.4-2.239.607-1.672.459-3.343.922-5.117,1.413.284.2.461.339.647.463,2.1,1.411,4.253,2.742,6.271,4.257,1.225.921,2.373,1.3,3.779.6a1.049,1.049,0,0,1,.266-.06,1.373,1.373,0,0,1,1.719.942,1.357,1.357,0,0,1-1.008,1.679c-.738.228-1.488.423-2.233.627Q50.762,18.378,32.9,23.27q-2.48.681-4.958,1.374c.007.036.013.073.02.109H77.367c1.593,0,1.978.381,1.978,1.967V61.164c0,.3,0,.592-.016.888a8.258,8.258,0,0,1-3.3,6.251A9.887,9.887,0,0,1,72.054,70Zm4.559-31.766H18.735c-.02.19-.053.343-.053.5,0,7.609-.024,15.216.009,22.825a5.565,5.565,0,0,0,5.78,5.706q23.168.011,46.337-.005a6.47,6.47,0,0,0,1.684-.217,5.593,5.593,0,0,0,4.116-5.746q.011-11.173,0-22.345C76.613,38.726,76.613,38.5,76.613,38.234ZM76.58,27.486c-1.992,0-3.925.015-5.855-.011a1.149,1.149,0,0,0-.986.454c-2.025,2.372-4.069,4.729-6.1,7.091a2.959,2.959,0,0,0-.237.385H76.58Zm-57.859.02v7.95c1.489,0,2.94.027,4.388-.02a1.487,1.487,0,0,0,.963-.45c2-2.268,3.967-4.566,5.941-6.858.153-.177.29-.37.485-.622ZM52.731,15c-.08-.117-.1-.166-.131-.19-2.716-1.83-5.429-3.664-8.159-5.472a1.142,1.142,0,0,0-.815-.084c-1.868.485-3.728,1.006-5.591,1.515l-1.89.52a1.155,1.155,0,0,0,.144.188q4.074,2.743,8.159,5.471a.947.947,0,0,0,.685.122C47.657,16.4,50.173,15.7,52.731,15Zm11.477-3.15.088-.164a2.133,2.133,0,0,1-.242-.118C61.369,9.767,58.693,7.957,56,6.18a1.216,1.216,0,0,0-.882-.08C52.805,6.707,50.5,7.346,48.2,7.979c-.157.044-.3.113-.556.21,2.871,1.925,5.644,3.792,8.429,5.635a.972.972,0,0,0,.7.069C59.259,13.225,61.732,12.534,64.208,11.851ZM24.539,14.472c.162.142.224.21.3.259,2.68,1.8,5.356,3.606,8.048,5.383a1.122,1.122,0,0,0,.809.095c1.6-.414,3.2-.866,4.8-1.305l2.669-.736c-.075-.113-.091-.16-.126-.184q-4.1-2.764-8.207-5.516a.779.779,0,0,0-.563-.115C29.727,13.036,27.2,13.739,24.539,14.472ZM51.292,35.454c2.8,0,5.42.009,8.037-.016a1.051,1.051,0,0,0,.658-.386q3.03-3.478,6.032-6.98c.137-.159.253-.335.439-.585-2.742,0-5.359-.011-7.977.018a1.15,1.15,0,0,0-.7.423c-1.858,2.127-3.7,4.271-5.542,6.411C51.96,34.661,51.688,34.987,51.292,35.454Zm-23.924-.073a2.268,2.268,0,0,0,.319.071c2.528,0,5.059.015,7.587-.013A1.12,1.12,0,0,0,36,35.057q3.082-3.525,6.125-7.08c.109-.128.2-.273.35-.489-2.742,0-5.379-.007-8.019.015a.892.892,0,0,0-.551.317c-.744.831-1.467,1.683-2.2,2.528C30.283,32,28.86,33.649,27.368,35.381Zm11.984,0a2.37,2.37,0,0,0,.352.069c2.528,0,5.059.015,7.587-.015a1.139,1.139,0,0,0,.716-.4c1.564-1.779,3.1-3.578,4.652-5.374L54.426,27.6c-.1-.067-.137-.109-.171-.109-2.6-.005-5.2-.013-7.791,0a.771.771,0,0,0-.514.244C43.769,30.251,41.6,32.772,39.352,35.381ZM18.278,24.443l11.34-3.108a.827.827,0,0,0-.111-.162c-2.734-1.841-5.463-3.688-8.212-5.507a.871.871,0,0,0-.726.015,5.514,5.514,0,0,0-2.933,3.578C17.127,21.055,17.782,22.7,18.278,24.443Z" transform="translate(-14.712)" fill="#f49f21"/>
  <path id="Path_2" data-name="Path 2" d="M342.6,49.259a1.324,1.324,0,0,1,1.353-1.329,1.36,1.36,0,0,1,1.356,1.34,1.394,1.394,0,0,1-1.4,1.38A1.361,1.361,0,0,1,342.6,49.259Z" transform="translate(-282.828 -39.193)" fill="#f49f21"/>
  <path id="Path_3" data-name="Path 3" d="M95.947,292.307H87.33v2.219c0,.273.015.549-.011.819a1.357,1.357,0,0,1-2.713-.044c-.029-.975-.007-1.95-.007-3.013H70.428a6.53,6.53,0,0,1-.682-.015,1.355,1.355,0,0,1-.118-2.685,4.1,4.1,0,0,1,.749-.033q21.249,0,42.5,0a4.988,4.988,0,0,1,.682.016,1.358,1.358,0,0,1-.073,2.705c-.226.02-.456.011-.684.011H98.681v2.24c0,.273.015.549-.011.818a1.357,1.357,0,0,1-2.713-.047C95.923,294.325,95.947,293.348,95.947,292.307Z" transform="translate(-58.701 -236.768)" fill="#f49f21"/>
  <path id="Path_4" data-name="Path 4" d="M91.641,245.056h21.182c1.269,0,1.9.441,1.921,1.331.016.913-.656,1.4-1.94,1.4q-21.183,0-42.366,0a4.091,4.091,0,0,1-.946-.082,1.318,1.318,0,0,1-1-1.369,1.345,1.345,0,0,1,1.218-1.262,7.368,7.368,0,0,1,.751-.018Z" transform="translate(-58.683 -200.383)" fill="#f49f21"/>
</svg>
