<svg xmlns="http://www.w3.org/2000/svg" width="18" height="18" viewBox="0 0 12.909 12.909">
                  <path id="Icon_ionic-logo-whatsapp" data-name="Icon ionic-logo-whatsapp" d="M8.821,2.25A6.313,6.313,0,0,0,2.484,8.538a6.223,6.223,0,0,0,.909,3.247L2.25,15.159l3.508-1.115a6.348,6.348,0,0,0,9.4-5.506A6.313,6.313,0,0,0,8.821,2.25Zm3.151,8.676a1.637,1.637,0,0,1-1.121.722c-.3.016-.306.23-1.926-.474A6.612,6.612,0,0,1,6.254,8.649a3.108,3.108,0,0,1-.6-1.684,1.8,1.8,0,0,1,.617-1.318.621.621,0,0,1,.439-.185c.128,0,.21,0,.3,0s.236-.02.359.307.416,1.128.454,1.21a.294.294,0,0,1,0,.282,1.1,1.1,0,0,1-.172.262c-.085.091-.178.2-.253.272s-.172.161-.084.325a4.849,4.849,0,0,0,.858,1.145,4.421,4.421,0,0,0,1.271.845c.159.087.254.077.352-.027s.422-.454.536-.61.221-.126.367-.067.927.477,1.085.563.265.13.3.2A1.331,1.331,0,0,1,11.972,10.926Z" transform="translate(-2.25 -2.25)" fill="#e52e18" style="
    fill: #fff;
"></path>
                </svg>