<svg id="Layer_1" data-name="Layer 1" xmlns="http://www.w3.org/2000/svg" viewBox="0 0 100 100"><defs><style>.cls-1{fill:#e95334;}</style></defs><title>Artboard 4 copy 7</title><path class="cls-1" d="M93.49,38A8.15,8.15,0,0,0,82,39l-1.76,2.08L92.74,51.53l1.68-2.08A8.13,8.13,0,0,0,93.49,38Z"/><path class="cls-1" d="M58.22,67.12l-.93,1.1a8.21,8.21,0,0,0-1.68,3.34L53.08,82.14a2.72,2.72,0,0,0,3.72,3.13l10-4.32a8.22,8.22,0,0,0,3-2.23l.93-1.1Z"/><polygon class="cls-1" points="76.74 45.2 61.73 62.97 74.21 73.45 89.23 55.68 76.74 45.2"/><path class="cls-1" d="M71.74,15.68,61.42,5.87A8,8,0,0,0,58,4V19.93H74.11A8.19,8.19,0,0,0,71.74,15.68Z"/><path class="cls-1" d="M50.32,70.3a13.7,13.7,0,0,1,2.8-5.56l21.16-25V25.37h-19a2.72,2.72,0,0,1-2.72-2.72v-19H11.79a8.16,8.16,0,0,0-8.15,8.15V88.22a8.16,8.16,0,0,0,8.15,8.15H66.13a8.16,8.16,0,0,0,8.15-8.15V81.79l-.35.42a13.64,13.64,0,0,1-5,3.71L59,90.25A8.15,8.15,0,0,1,47.8,80.87ZM17.22,19.93H44.39a2.72,2.72,0,1,1,0,5.43H17.22a2.72,2.72,0,1,1,0-5.43Zm0,16.48H60.69a2.72,2.72,0,0,1,0,5.43H17.22a2.72,2.72,0,1,1,0-5.43ZM39,74.45H17.22a2.72,2.72,0,0,1,0-5.43H39a2.72,2.72,0,0,1,0,5.43ZM17.22,58.15a2.72,2.72,0,1,1,0-5.43h32.6a2.72,2.72,0,0,1,0,5.43Z"/></svg>