<svg id="Layer_1" data-name="Layer 1" xmlns="http://www.w3.org/2000/svg" viewBox="0 0 100 100"><defs><style>.cls-1{fill:#f9c121;}</style></defs><title>icon_habai]ybna [Recovered]</title><path class="cls-1" d="M96.5,74A22.53,22.53,0,0,0,74,51.45c-.49,0-1,0-1.45.05A22.52,22.52,0,0,0,51.6,71.43,22.4,22.4,0,0,0,52,78.7,22.52,22.52,0,0,0,96.5,74ZM74,88.87A14.89,14.89,0,1,1,88.87,74,14.89,14.89,0,0,1,74,88.87Z"/><polygon class="cls-1" points="76.88 63.8 71.8 63.8 71.8 71.8 63.8 71.8 63.8 76.88 76.88 76.88 76.88 71.8 76.88 71.8 76.88 63.8"/><path class="cls-1" d="M20.21,3.5A2.55,2.55,0,0,0,17.67,6V18a2.55,2.55,0,0,0,2.54,2.54h2.18A2.55,2.55,0,0,0,24.93,18V6A2.55,2.55,0,0,0,22.39,3.5Z"/><path class="cls-1" d="M60.17,3.5A2.55,2.55,0,0,0,57.63,6V18a2.55,2.55,0,0,0,2.54,2.54h2.18A2.55,2.55,0,0,0,64.89,18V6A2.55,2.55,0,0,0,62.35,3.5Z"/><path class="cls-1" d="M9.31,78.7h36a27.61,27.61,0,0,1-.54-5.45c0-.61,0-1.22.07-1.82H14.4A4.36,4.36,0,0,1,10,67.07V32.2H72.52V45.68c.48,0,1,0,1.45,0a27.62,27.62,0,0,1,5.09.48V17.67a5.81,5.81,0,0,0-5.81-5.81H68.53V18a6.18,6.18,0,0,1-6.18,6.18H60.17A6.18,6.18,0,0,1,54,18V11.86H28.57V18a6.18,6.18,0,0,1-6.18,6.18H20.21A6.18,6.18,0,0,1,14,18V11.86H9.31A5.81,5.81,0,0,0,3.5,17.67V72.89A5.81,5.81,0,0,0,9.31,78.7Z"/><circle class="cls-1" cx="23.98" cy="43.1" r="5.77"/><circle class="cls-1" cx="41.28" cy="43.1" r="5.77"/><circle class="cls-1" cx="58.58" cy="43.1" r="5.77"/><circle class="cls-1" cx="41.28" cy="60.54" r="5.77"/><circle class="cls-1" cx="23.98" cy="60.54" r="5.77"/></svg>