<svg id="Layer_1" data-name="Layer 1" xmlns="http://www.w3.org/2000/svg" viewBox="0 0 100 100"><defs><style>.cls-1{fill:#623188;}</style></defs><title>Artboard 4 copy 2</title><path class="cls-1" d="M95.87,72.69,82.33,59.15c-4.84-4.84-13.06-2.9-15,3.38a9.21,9.21,0,0,1-10.64,5.8C47,65.92,34,53.35,31.56,43.2,30.11,38.84,33,34,37.36,32.56c6.29-1.93,8.22-10.15,3.38-15L27.21,4C23.34.65,17.54.65,14.15,4L5,13.22c-9.19,9.67,1,35.3,23.69,58S77,104.6,86.68,94.93l9.19-9.19C99.25,81.88,99.25,76.08,95.87,72.69Z"/></svg>