<svg id="Layer_1" data-name="Layer 1" xmlns="http://www.w3.org/2000/svg" viewBox="0 0 100 100"><defs><style>.cls-1{fill:#2ab7c7;}</style></defs><title>Artboard 4 copy 8</title><path class="cls-1" d="M98.29,43,87.81,32.48A20.69,20.69,0,1,0,82,38.32L92.46,48.79A4.12,4.12,0,0,0,98.29,43Zm-40-21.83A12.38,12.38,0,1,1,70.62,33.5,12.39,12.39,0,0,1,58.25,21.13Z"/><path class="cls-1" d="M78.88,70.63V48.77A28.94,28.94,0,0,1,70.62,50V70.63H17V33.5H44.55a28.37,28.37,0,0,1-2.81-12.38A22.88,22.88,0,0,1,42.08,17H4.62A4.14,4.14,0,0,0,.5,21.13v8.25A4.14,4.14,0,0,0,4.62,33.5H8.75V70.63a4.13,4.13,0,0,0,0,8.25H37l-10.87,14a4.12,4.12,0,1,0,6.51,5.06L43.81,83.53,55,97.91a4.12,4.12,0,1,0,6.51-5.06l-10.86-14H78.88a4.13,4.13,0,1,0,0-8.25Z"/></svg>