<svg id="Layer_1" data-name="Layer 1" xmlns="http://www.w3.org/2000/svg" viewBox="0 0 100 100"><defs><style>.cls-1{fill:#f9c121;}</style></defs><title>Artboard 4 copy 9</title><circle class="cls-1" cx="37.96" cy="41.97" r="12.04"/><path class="cls-1" d="M70.07,54H58a4,4,0,0,1,0-8h12a4,4,0,1,1,0,8Z"/><path class="cls-1" d="M70.07,38H58a4,4,0,0,1,0-8h12a4,4,0,1,1,0,8Z"/><path class="cls-1" d="M92.14,1.83H7.86a6,6,0,0,0-6,6v4a6,6,0,0,0,6,6h2V66.05a4,4,0,0,0,0,8H43.58L30.7,91.79a4,4,0,0,0,6.49,4.72L46,84.42v9.73a4,4,0,0,0,8,0V84.42l8.79,12.09a4,4,0,0,0,6.49-4.72L56.42,74.08H90.14a4,4,0,0,0,0-8V17.89h2a6,6,0,0,0,6-6v-4a6,6,0,0,0-6-6Zm-10,64.22H17.89V17.89H82.11Z"/></svg>