<svg id="Layer_1" data-name="Layer 1" xmlns="http://www.w3.org/2000/svg" viewBox="0 0 100 100"><defs><style>.cls-1{fill:#623188;}</style></defs><title>Artboard 4 copy 6</title><path class="cls-1" d="M79.85,69.77V57.21a34.33,34.33,0,0,1-8.21,0V69.77H18.27V32.82H43.93a33.36,33.36,0,0,1,0-16.42H6A4.12,4.12,0,0,0,1.85,20.5v8.21A4.12,4.12,0,0,0,6,32.82h4.11V69.77a4.11,4.11,0,1,0,0,8.21h28.1L27.35,91.88a4.1,4.1,0,1,0,6.48,5L45,82.61,56.08,96.92a4.1,4.1,0,1,0,6.48-5L51.76,78h28.1a4.11,4.11,0,1,0,0-8.21Z"/><path class="cls-1" d="M73.32,1.5A24.82,24.82,0,1,0,98.15,26.32,24.82,24.82,0,0,0,73.32,1.5ZM86.63,28.22,66.44,39.88A2.19,2.19,0,0,1,63.15,38V14.67a2.19,2.19,0,0,1,3.29-1.9L86.63,24.43A2.19,2.19,0,0,1,86.63,28.22Z"/></svg>