<svg id="Layer_1" data-name="Layer 1" xmlns="http://www.w3.org/2000/svg" viewBox="0 0 100 100"><defs><style>.cls-1{fill:#2ab7c7;}</style></defs><title>Artboard 4 copy 4</title><path class="cls-1" d="M13.3,42.2H41.06a5.71,5.71,0,0,0,5.71-5.71V30.22c.26-.21-.32.42,7.24-8.17a5.71,5.71,0,0,0-2.8-9.85c-.35-.06,2.33,0-37.91,0a5.71,5.71,0,0,0-5.71,5.71V36.5A5.71,5.71,0,0,0,13.3,42.2Z"/><path class="cls-1" d="M93,57.8c-45.67,0-43.52-.08-44.19,0A5.71,5.71,0,0,0,46,67.7c7.55,8.58,7,8,7.24,8.17v6.28a5.71,5.71,0,0,0,5.71,5.71H93a5.71,5.71,0,0,0,5.71-5.71V63.5A5.71,5.71,0,0,0,93,57.8Zm-20.1,17.4a2.85,2.85,0,1,1,.79-4,2.85,2.85,0,0,1-.79,4Zm13-.79A2.85,2.85,0,1,1,82.91,70,2.86,2.86,0,0,1,85.84,74.41Z"/><path class="cls-1" d="M90.34,32.18a19.18,19.18,0,0,1-28.91.06,20.55,20.55,0,0,0-8.2,16.24,2.85,2.85,0,0,0,2.85,2.85H95.83a2.85,2.85,0,0,0,2.85-2.85,20.51,20.51,0,0,0-8.34-16.3Z"/><path class="cls-1" d="M38.53,74.81a19.18,19.18,0,0,1-28.84-.06A20.51,20.51,0,0,0,1.32,91.08a2.85,2.85,0,0,0,2.85,2.85H43.91a2.85,2.85,0,0,0,2.85-2.85,20.55,20.55,0,0,0-8.23-16.27Z"/><ellipse class="cls-1" cx="24.14" cy="62.14" rx="13.5" ry="13.47"/><circle class="cls-1" cx="75.86" cy="19.57" r="13.5"/></svg>