<svg id="Layer_1" data-name="Layer 1" xmlns="http://www.w3.org/2000/svg" viewBox="0 0 100 100"><defs><style>.cls-1,.cls-2{fill:#e41b48;}.cls-2{stroke:#fff;stroke-miterlimit:10;stroke-width:2px;}</style></defs><title>Artboard 4 copy 10</title><path class="cls-1" d="M64.45,28.13a18,18,0,0,1-8.59,2.26H42.7A17.67,17.67,0,0,1,35,28.64a21.47,21.47,0,1,0,29.46-.51Z"/><path class="cls-1" d="M66.94,67.57l-.68-.11-.56.34a28.35,28.35,0,0,1-31.4,0l-.56-.34-.68.11C17.93,71.41,9.91,81.12,9.91,95.81V97.5H88.62l1.47-.11V95.69C90.09,81.12,82.07,71.41,66.94,67.57Z"/><path class="cls-2" d="M28.37,28.87v12S39.83,36,50,36s21.64,4.78,21.64,4.78V28.7s-10.94-5.79-21.8-5.79S28.37,28.87,28.37,28.87Z"/><path class="cls-1" d="M83.17,26l4.22-2.27-4.22-2.34V20.25s1.19-6-5.56-2.87a1.24,1.24,0,0,0-.6.56L49.18,2.5,12.61,23.43,26.42,29.7v-2S38,21.16,49.88,21.16s23.83,6.32,23.83,6.32V31l7.62-4.1V43.53H78.8v5.89l3.38-2.33,3.75,2.33v-5.9H83.17V26Zm-1.84-6.73v1.11L79.11,19.1C79.92,18.56,81.33,17.82,81.33,19.22Zm-.75,6.5a1.78,1.78,0,1,1,1.78-1.78A1.78,1.78,0,0,1,80.58,25.73Z"/></svg>