<svg id="Layer_1" data-name="Layer 1" xmlns="http://www.w3.org/2000/svg" viewBox="0 0 100 100"><defs><style>.cls-1{fill:#e95334;}</style></defs><title>icon_habai]ybna [Recovered]</title><path class="cls-1" d="M44.56,65.68a26,26,0,1,0,26-26A26,26,0,0,0,44.56,65.68ZM57,64.37l12-12A1.86,1.86,0,0,1,71.57,55l-8.8,8.79H87.34a1.85,1.85,0,1,1,0,3.71H62.78l8.8,8.79a1.86,1.86,0,0,1-2.62,2.62L57,67A1.85,1.85,0,0,1,57,64.37Z"/><path class="cls-1" d="M79,8.36H15.54a12.05,12.05,0,0,0-12,12V69.65A13.15,13.15,0,0,0,16.63,82.79H38.53a4.38,4.38,0,0,0,0-8.76H16.63a4.38,4.38,0,0,1-4.38-4.38v-35H82.31a4.38,4.38,0,1,0,8.76,0V20.4A12.05,12.05,0,0,0,79,8.36Zm-60.43,19A5.44,5.44,0,1,1,24,21.94,5.43,5.43,0,0,1,18.6,27.38Zm12.68,0a5.44,5.44,0,1,1,5.44-5.44A5.43,5.43,0,0,1,31.28,27.38Zm12.68,0a5.44,5.44,0,1,1,5.44-5.44A5.43,5.43,0,0,1,44,27.38Z"/><circle class="cls-1" cx="18.84" cy="21.7" r="2.26"/><circle class="cls-1" cx="31.35" cy="21.7" r="2.26"/><circle class="cls-1" cx="43.86" cy="21.7" r="2.26"/></svg>