<svg id="Layer_1" data-name="Layer 1" xmlns="http://www.w3.org/2000/svg" viewBox="0 0 100 100"><defs><style>.cls-1{fill:#2ab7c7;}</style></defs><title>Artboard 4</title><path class="cls-1" d="M7,36.64a24.48,24.48,0,0,0,2.16,5.17l-2.6,3.31a2.74,2.74,0,0,0,.2,3.6l4.48,4.53a2.66,2.66,0,0,0,3.57.2l3.26-2.61a23.56,23.56,0,0,0,5.32,2.27l.49,4.24a2.7,2.7,0,0,0,2.67,2.4h6.34a2.7,2.7,0,0,0,2.67-2.4L36,53.28a23.82,23.82,0,0,0,5.7-2.33l3.15,2.52a2.67,2.67,0,0,0,3.57-.2l4.48-4.53a2.73,2.73,0,0,0,.2-3.6L50.67,42A23.77,23.77,0,0,0,53,36.33l3.78-.44a2.7,2.7,0,0,0,2.38-2.69v-6.4A2.7,2.7,0,0,0,56.8,24.1l-3.73-.44a23.93,23.93,0,0,0-2.25-5.6l2.29-2.93a2.74,2.74,0,0,0-.2-3.6L48.44,7a2.66,2.66,0,0,0-3.57-.2L42.06,9.06a23.51,23.51,0,0,0-5.83-2.47L35.8,2.91A2.7,2.7,0,0,0,33.14.51H26.8a2.7,2.7,0,0,0-2.67,2.4l-.42,3.68a23.41,23.41,0,0,0-6,2.55L14.81,6.81a2.67,2.67,0,0,0-3.57.2L6.76,11.54a2.73,2.73,0,0,0-.2,3.6L9,18.26a23.48,23.48,0,0,0-2.21,5.65l-3.91.45A2.7,2.7,0,0,0,.5,27.06v6.4a2.7,2.7,0,0,0,2.38,2.69ZM30,19.31A10.59,10.59,0,1,1,19.49,29.9,10.55,10.55,0,0,1,30,19.31Z"/><path class="cls-1" d="M92.65,38.22l-3.35-2.85a2.63,2.63,0,0,0-3.53.1l-1.85,1.75A19,19,0,0,0,79,35.6L78.48,33a2.68,2.68,0,0,0-2.83-2.15l-4.36.38a2.67,2.67,0,0,0-2.43,2.59l-.08,2.62a19.09,19.09,0,0,0-4.7,2.5l-2.21-1.48a2.63,2.63,0,0,0-3.49.5l-2.82,3.4a2.69,2.69,0,0,0,.1,3.56L57.57,47a20.15,20.15,0,0,0-1.42,4.76l-2.76.57a2.69,2.69,0,0,0-2.12,2.85l.37,4.41a2.67,2.67,0,0,0,2.56,2.46l3,.1a19.77,19.77,0,0,0,2.11,4.08l-1.67,2.54a2.7,2.7,0,0,0,.5,3.53l3.35,2.85a2.63,2.63,0,0,0,3.53-.1L67.18,73a19,19,0,0,0,4.49,1.48l.61,3a2.68,2.68,0,0,0,2.82,2.15l4.36-.38A2.67,2.67,0,0,0,81.9,76.7l.1-3a19.56,19.56,0,0,0,4.49-2.3L88.9,73a2.64,2.64,0,0,0,3.49-.5l2.82-3.38a2.69,2.69,0,0,0-.1-3.56l-1.94-2.08a19.46,19.46,0,0,0,1.53-4.78l2.66-.55a2.69,2.69,0,0,0,2.12-2.85l-.37-4.41a2.67,2.67,0,0,0-2.56-2.46l-2.67-.09A19.56,19.56,0,0,0,91.68,44l1.45-2.21A2.69,2.69,0,0,0,92.65,38.22ZM76.2,63.7A8.67,8.67,0,1,1,84,54.34,8.61,8.61,0,0,1,76.2,63.7Z"/><path class="cls-1" d="M22.27,75.57a2.67,2.67,0,0,0-2.38,2.64l0,2.71a2.67,2.67,0,0,0,2.32,2.69l2,.26a15.57,15.57,0,0,0,1.4,3.47l-1.27,1.59a2.69,2.69,0,0,0,.16,3.56l1.88,1.94a2.63,2.63,0,0,0,3.53.25l1.58-1.23A15.43,15.43,0,0,0,35,95l.21,2.06a2.66,2.66,0,0,0,2.61,2.4l2.69,0a2.66,2.66,0,0,0,2.67-2.34l.24-2a15.86,15.86,0,0,0,3.82-1.5l1.49,1.21a2.63,2.63,0,0,0,3.53-.16l1.92-1.9a2.7,2.7,0,0,0,.24-3.56L53.24,87.8A15.64,15.64,0,0,0,54.85,84l1.76-.18A2.67,2.67,0,0,0,59,81.22l0-2.71a2.66,2.66,0,0,0-2.32-2.69L55,75.59a16.26,16.26,0,0,0-1.45-3.75l1.07-1.33a2.69,2.69,0,0,0-.16-3.56L52.57,65A2.63,2.63,0,0,0,49,64.76l-1.29,1a15.54,15.54,0,0,0-3.87-1.69l-.17-1.68A2.66,2.66,0,0,0,41.11,60l-2.69,0a2.66,2.66,0,0,0-2.67,2.34L35.55,64a16,16,0,0,0-4,1.65l-1.33-1.09a2.63,2.63,0,0,0-3.53.16l-1.93,1.91a2.7,2.7,0,0,0-.24,3.56l1.14,1.48a15.79,15.79,0,0,0-1.52,3.75ZM39.61,72.5a7.06,7.06,0,1,1-7.07,7A7,7,0,0,1,39.61,72.5Z"/></svg>