<?xml version="1.0" encoding="utf-8"?>
<!-- Generator: Adobe Illustrator 26.0.3, SVG Export Plug-In . SVG Version: 6.00 Build 0)  -->
<svg version="1.1" id="Layer_1" xmlns="http://www.w3.org/2000/svg" xmlns:xlink="http://www.w3.org/1999/xlink" x="0px" y="0px"
	 viewBox="0 0 600 684.79" style="enable-background:new 0 0 600 684.79;" xml:space="preserve">
<style type="text/css">
	.st0{fill:none;stroke:#1A1A1A;stroke-width:1.1434;stroke-miterlimit:10;}
	.st1{fill:none;stroke:#1A1A1A;stroke-width:0.5717;stroke-linecap:round;stroke-linejoin:round;stroke-miterlimit:10;}
	.st2{fill:none;stroke:#1A1A1A;stroke-width:1.0824;stroke-linecap:round;stroke-linejoin:round;stroke-miterlimit:10;}
	.st3{fill:#1A1A1A;}
	.st4{fill:none;stroke:#1A1A1A;stroke-width:0.5354;stroke-linecap:round;stroke-linejoin:round;stroke-miterlimit:10;}
	.st5{fill:none;stroke:#1A1A1A;stroke-width:1.1434;stroke-linecap:round;stroke-linejoin:round;stroke-miterlimit:10;}
	.st6{fill:#010101;}
</style>
<g>
	<g>
		<g>
			<path class="st0" d="M409.42,200.26c0,0,14.22,211.68-113.75,211.68c-127.97,0-117.7-211.68-117.7-211.68S171.79,74.38,300,74.38
				C419.33,74.38,409.42,200.26,409.42,200.26z"/>
			<g>
				<path class="st0" d="M409.38,242.03c0,0,11.98-17.32,26.19-8.92c14.21,8.4,9.69,39.41,0,54.92
					c-9.69,15.51-25.33,23.17-33.99,11.26"/>
				<g>
					<g>
						<path class="st1" d="M434.02,252.5c0,0-16.02-5.34-27.39,18.24"/>
					</g>
					<path class="st1" d="M414.41,259.2c0,0,17.43,9.32,5.92,23.33"/>
				</g>
			</g>
			<g>
				<path class="st0" d="M178.83,242.03c0,0-11.98-17.32-26.19-8.92c-14.21,8.4-9.69,39.41,0,54.92
					c9.69,15.51,25.33,23.17,33.99,11.26"/>
				<g>
					<g>
						<path class="st1" d="M154.19,252.5c0,0,16.02-5.34,27.39,18.24"/>
					</g>
					<path class="st1" d="M173.8,259.2c0,0-17.43,9.32-5.92,23.33"/>
				</g>
			</g>
			<g>
				<path class="st2" d="M288.12,238.05v44.38c0,1.38,0.27,2.7,0.75,3.92c1.9,4.76,7.39,7.04,12.34,5.73l10.66-2.83"/>
				<path class="st3" d="M277.91,167.68c-0.93,1.39-6.49,18.99-6.49,18.99h-61.13l20.75-11.76c5.26-2.63,10.98-4.23,16.84-4.72
					L277.91,167.68z"/>
				<path class="st3" d="M316.44,167.68c0.93,1.39,6.49,18.99,6.49,18.99h61.13l-20.75-11.76c-5.26-2.63-10.98-4.23-16.84-4.72
					L316.44,167.68z"/>
				<circle class="st3" cx="247.21" cy="228.4" r="10.61"/>
				<path class="st3" d="M356.7,228.4c0,5.86-4.75,10.61-10.61,10.61c-5.86,0-10.61-4.75-10.61-10.61c0-5.86,4.75-10.61,10.61-10.61
					C351.95,217.79,356.7,222.54,356.7,228.4z"/>
				<line class="st1" x1="266.44" y1="239.01" x2="240.05" y2="256.43"/>
				<line class="st1" x1="329.38" y1="240.93" x2="352.72" y2="258.52"/>
				<path class="st2" d="M260.71,313.9c0,0,17.43,12.17,38.55,12.17c21.12,0,35.72-12.17,35.72-12.17"/>
				<g>
					<circle class="st4" cx="236.76" cy="231.17" r="44.5"/>
					<circle class="st4" cx="346.09" cy="231.17" r="44.5"/>
					<path class="st4" d="M281.26,231.17c0,0,10.54-9.84,20.32,0"/>
					<line class="st4" x1="193.94" y1="243.16" x2="178.24" y2="230.82"/>
					<line class="st4" x1="389" y1="243.16" x2="409.89" y2="226.73"/>
				</g>
			</g>
			<path class="st3" d="M293.65,48.79c-155.89,0-140.15,106.09-116.44,190.22c0,0,21.09-39.22,16.9-66.9
				c88.56-10.08,167.96-58.88,168.35-59.12c6.12,48.36,47.97,120.17,47.97,120.17C434.02,154.88,458.53,48.79,293.65,48.79z"/>
		</g>
	</g>
	<g>
		<g>
			<path class="st5" d="M593.8,684.79c0-110.81-128.13-175.62-128.13-175.62H311.88h-23.75H134.33c0,0-128.13,64.82-128.13,175.62"
				/>
			<polygon class="st6" points="552.7,579.85 47.31,579.85 75.01,551.09 525,551.09 			"/>
			<polygon class="st6" points="588.8,647.33 10.15,647.33 23.56,618.57 575.19,618.57 			"/>
		</g>
		<g>
			<path class="st5" d="M217.45,375.37v88.98c0,0-19.11,33.71-83.12,44.81h326.89c0,0-81.98-17.07-87.93-44.81v-88.98"/>
			<path class="st3" d="M219.17,377.77c0,0,23,45.66,60.22,66.87c27.02,15.4,61.97,9.42,80.31-15.69
				c9.15-12.53,16.12-30.97,16.12-58.09c0,0-29.8,39.24-74.23,41.08C257.16,413.79,219.17,377.77,219.17,377.77z"/>
		</g>
	</g>
</g>
</svg>
