<?xml version="1.0" encoding="utf-8"?>
<!-- Generator: Adobe Illustrator 26.0.3, SVG Export Plug-In . SVG Version: 6.00 Build 0)  -->
<svg version="1.1" id="Layer_1" xmlns="http://www.w3.org/2000/svg" xmlns:xlink="http://www.w3.org/1999/xlink" x="0px" y="0px"
	 viewBox="0 0 600 684.79" style="enable-background:new 0 0 600 684.79;" xml:space="preserve">
<style type="text/css">
	.st0{fill:none;stroke:#1A1A1A;stroke-width:1.1434;stroke-linecap:round;stroke-linejoin:round;stroke-miterlimit:10;}
	.st1{fill:#1A1A1A;}
	.st2{fill:none;stroke:#1A1A1A;stroke-width:1.1434;stroke-miterlimit:10;}
	.st3{fill:none;stroke:#1A1A1A;stroke-width:0.5717;stroke-linecap:round;stroke-linejoin:round;stroke-miterlimit:10;}
	.st4{fill:none;stroke:#1A1A1A;stroke-width:1.0824;stroke-linecap:round;stroke-linejoin:round;stroke-miterlimit:10;}
</style>
<g>
	<g>
		<path class="st0" d="M463.93,511.42c0,0-84.75-19.19-90.69-46.9V375.6"/>
		<path class="st0" d="M217.51,375.6v88.92c0,0-18.23,36.69-82.19,47.78"/>
		<path class="st1" d="M6.42,684.79c0-110.72,128.03-175.49,128.03-175.49l161.38,66.99l169.71-66.99
			c0,0,128.03,64.77,128.03,175.49H6.42z"/>
		<path class="st1" d="M219.23,378c0,0,22.98,45.63,60.17,66.82c27,15.39,61.93,9.42,80.25-15.68c9.14-12.52,16.1-30.95,16.1-58.04
			c0,0-29.78,39.21-74.17,41.05C257.19,413.99,219.23,378,219.23,378z"/>
	</g>
	<g>
		<path class="st2" d="M409.34,200.62c0,0,14.21,211.52-113.67,211.52c-127.88,0-117.61-211.52-117.61-211.52
			S171.88,74.83,300,74.83C419.25,74.83,409.34,200.62,409.34,200.62z"/>
		<g>
			<path class="st2" d="M409.3,242.36c0,0,11.97-17.3,26.17-8.91c14.2,8.39,9.68,39.38,0,54.88c-9.68,15.49-25.32,23.15-33.96,11.25
				"/>
			<g>
				<g>
					<path class="st3" d="M433.92,252.82c0,0-16.01-5.34-27.36,18.23"/>
				</g>
				<path class="st3" d="M414.33,259.52c0,0,17.42,9.32,5.91,23.31"/>
			</g>
		</g>
		<g>
			<path class="st2" d="M178.91,242.36c0,0-11.97-17.3-26.17-8.91c-14.2,8.39-9.68,39.38,0,54.88
				c9.68,15.49,25.32,23.15,33.96,11.25"/>
			<g>
				<g>
					<path class="st3" d="M154.3,252.82c0,0,16.01-5.34,27.36,18.23"/>
				</g>
				<path class="st3" d="M173.89,259.52c0,0-17.42,9.32-5.91,23.31"/>
			</g>
		</g>
		<path class="st1" d="M413.81,134.23c0-19.97-11.73-38.08-29.96-46.25l-21.13-11.19c-9.89-24.83-30.7-47.24-73.91-46.11
			c-4,0.1-7.96,0.86-11.76,2.11c-12.06,3.97-36.59,15.02-42.2,39.88l-28.9,15.31c-18.23,8.16-29.96,26.27-29.96,46.25v75.44
			c-0.2,5.37-0.21,10.65,0,15.71v0.76c0,0,0-0.26,0-0.65c0.21,4.87,0.62,9.54,1.31,13.86c0,0,26.1-52.37,21.17-84.91
			c-1.73-11.4-0.06-23.23,6.45-32.75c1.69-2.47,3.5-4.78,5.43-6.89c8.83-9.64,18.32-16.14,27.33-20.58
			c6.09,17.63,22.95,42.72,69.61,53.18c0,0-30.67-20.46-47.88-44.79c14.98,14.26,46.67,33.09,111.25,37.54
			c0,0,2.03-17.17-1.18-37.89c4.53,3.28,9,7.11,13.23,11.74c0.06,0.07,0.12,0.13,0.18,0.2c9.49,10.48,12.7,25.22,9.63,39.02
			c-8.69,39.14,16.97,86.12,16.97,86.12c1.09-6.82,1.54-14.56,1.54-22.66c0.14,6.44,0.05,10.78,0.02,11.82L413.81,134.23z"/>
		<g>
			<path class="st4" d="M288.13,238.38v44.35c0,1.38,0.27,2.7,0.75,3.91c1.9,4.76,7.38,7.04,12.33,5.72l10.65-2.83"/>
			<path class="st1" d="M277.92,168.06c-0.93,1.39-6.48,18.97-6.48,18.97h-61.09l20.74-11.76c5.26-2.63,10.97-4.23,16.83-4.72
				L277.92,168.06z"/>
			<path class="st1" d="M316.43,168.06c0.93,1.39,6.48,18.97,6.48,18.97H384l-20.74-11.76c-5.26-2.63-10.97-4.23-16.83-4.72
				L316.43,168.06z"/>
			<path class="st1" d="M257.85,228.74c0,5.86-4.75,10.6-10.6,10.6c-5.86,0-10.6-4.75-10.6-10.6c0-5.86,4.75-10.6,10.6-10.6
				C253.1,218.14,257.85,222.88,257.85,228.74z"/>
			<circle class="st1" cx="346.05" cy="228.74" r="10.6"/>
			<line class="st3" x1="266.46" y1="239.34" x2="240.1" y2="256.74"/>
			<line class="st3" x1="329.36" y1="241.26" x2="352.68" y2="258.84"/>
			<path class="st4" d="M260.74,309.22c0,0,17.42,12.16,38.53,12.16c21.11,0,35.69-12.16,35.69-12.16"/>
			<line class="st3" x1="302.79" y1="374.2" x2="298.79" y2="387.33"/>
		</g>
	</g>
</g>
</svg>
