<?xml version="1.0" encoding="utf-8"?>
<!-- Generator: Adobe Illustrator 26.0.3, SVG Export Plug-In . SVG Version: 6.00 Build 0)  -->
<svg version="1.1" id="Layer_1" xmlns="http://www.w3.org/2000/svg" xmlns:xlink="http://www.w3.org/1999/xlink" x="0px" y="0px"
	 viewBox="0 0 600 684.79" style="enable-background:new 0 0 600 684.79;" xml:space="preserve">
<style type="text/css">
	.st0{fill:#3F2242;}
</style>
<g>
	<path class="st0" d="M293.2,318.6c0.28,0,0.56-0.01,0.84-0.04c8.17-0.74,15.2-10.47,15.5-10.88c0.59-0.83,0.4-1.98-0.43-2.58
		c-0.83-0.6-1.99-0.4-2.58,0.43c-0.06,0.09-6.35,8.76-12.83,9.35c-5.33,0.53-13.9-6.75-16.73-9.58c-0.72-0.72-1.89-0.72-2.61,0
		c-0.72,0.72-0.72,1.89,0,2.61C275.49,309.04,285.28,318.6,293.2,318.6z"/>
	<path class="st0" d="M325.16,241.35c5.29-0.51,10.47-2.22,16.08-2.43c5.56-0.15,11.22,0.18,16.9,0.94
		c5.69,0.7,11.36,1.94,16.93,3.55l0.41-0.8c-5.07-2.96-10.57-5.14-16.22-7.07c-5.69-1.83-11.63-3.12-17.76-3.73
		c-6.08-0.58-12.61-1.13-18.68,0.92c-6.02,1.99-11.52,5.67-14.99,10.72l0.54,0.73C314.71,243.26,319.78,241.99,325.16,241.35z"/>
	<path class="st0" d="M259.63,232.58c-5.79-2.08-12.03-1.52-17.82-0.94c-5.85,0.62-11.52,1.92-16.94,3.77
		c-5.4,1.96-10.64,4.16-15.48,7.16l0.39,0.81c5.31-1.63,10.72-2.88,16.15-3.6c5.41-0.77,10.82-1.1,16.12-0.95
		c5.36,0.21,10.3,1.94,15.34,2.46c5.13,0.65,9.97,1.94,16.02,2.87l0.52-0.74C270.62,238.33,265.37,234.6,259.63,232.58z"/>
	<path class="st0" d="M329.95,327.82c-22.91,9.44-51.28,9.43-74.18,0c-0.65-0.27-1.4-0.14-1.93,0.33c-0.53,0.47-0.74,1.2-0.55,1.88
		c4.12,14.56,20.42,30.28,39.57,30.28c19.15,0,35.45-15.72,39.57-30.28c0.19-0.68-0.02-1.41-0.55-1.88
		C331.36,327.68,330.61,327.55,329.95,327.82z M292.86,356.61c-15.82,0-29.51-11.8-34.7-23.9c21.79,7.89,47.61,7.89,69.41,0
		C322.37,344.81,308.69,356.61,292.86,356.61z"/>
	<path class="st0" d="M140.89,431.62c-4.74-10.98-9.12-29.16-5.31-55.82c0.14-1.01,1.08-1.71,2.09-1.57
		c1.01,0.14,1.71,1.08,1.57,2.09c-4.4,30.82,2.67,49.95,7.79,59.2c5.8,3.2,12.01,5.5,18.03,7.98c8.05,3.32,15.93,3.94,23.3,3.07
		c-37.31-39.35-27.94-105.12-27.82-105.86c0.15-1.01,1.09-1.71,2.1-1.55c1.01,0.15,1.7,1.09,1.55,2.1
		c-0.11,0.72-9.49,66.85,28.66,104.6c8.95-1.82,16.98-5.63,23.39-9.25c-0.69-0.26-1.37-0.51-2.08-0.84
		c-16.49-7.79-28.86-31.16-36.75-69.45c-0.21-1,0.44-1.98,1.44-2.18c1.01-0.2,1.98,0.44,2.18,1.44
		c9.52,46.21,24.13,61.86,34.71,66.86c1.7,0.8,3.29,1.28,4.84,1.64c0.38-0.23,0.77-0.46,1.13-0.68c2.53-1.55,4.97-3.21,7.25-4.88
		l-3.86,39.75c-0.1,1.02,0.64,1.92,1.66,2.02c0.06,0.01,0.12,0.01,0.18,0.01c0.94,0,1.75-0.71,1.84-1.67l4.19-43.16
		c6.54-5.16,11-9.61,11-9.61s-4.57-0.01-9.99-0.75l3.21-33.12c15.87,16.49,34.57,32.75,48.9,35.68c1.21,0.25,2.46,0.37,3.75,0.37
		c17.66,0,42.28-22.28,60.75-42.16c-0.03,0.17-0.07,0.33-0.05,0.51l3.81,37.26c-7.85,2.22-17.32,2.22-17.32,2.22
		s8.43,8.42,19.13,15.53l3,29.28c0.1,0.95,0.9,1.66,1.84,1.66c0.06,0,0.13,0,0.19-0.01c1.02-0.1,1.75-1.01,1.65-2.03l-2.89-28.24
		c10.31-5.63,22.55-14.72,34.31-29.48c0.63-0.8,1.8-0.93,2.6-0.29c0.8,0.64,0.93,1.8,0.29,2.6c-12.02,15.1-24.41,24.43-34.95,30.27
		c6.03,3.56,13.81,7.64,22.64,9.95c29.76-22.28,26.59-69.74,26.56-70.24c-0.08-1.02,0.69-1.9,1.7-1.98c1.01-0.1,1.9,0.68,1.98,1.7
		c0.16,2.07,3.22,47.55-25.55,71.54c8.24,1.46,17.21,1.17,26.4-2.61c5.18-2.13,10.49-4.13,15.56-6.68
		c12.07-31.75,5.63-64.76,5.55-65.12c-0.2-1,0.44-1.98,1.44-2.18c1.02-0.2,1.98,0.44,2.18,1.44c0.29,1.45,6.25,31.86-4.25,63.12
		c15.09-9.26,26.65-26.02,23.34-70.84c-4.72-64.07-24.95-84.3-31.02-127.47c-6.07-43.16-12.14-92.4-37.09-125.44
		c-24.95-33.05-86.33-29.68-93.75-26.98c-7.42,2.7-7.42,2.7-7.42,2.7s0,0-7.42-2.7s-68.79-6.07-93.75,26.98
		c-24.95,33.05-31.02,82.28-37.09,125.44c-6.07,43.16-26.3,63.4-31.02,127.47C118.19,404.36,127.66,421.86,140.89,431.62z
		 M357.93,412.27l-3.71-36.26c-0.1-1.02-1.04-1.75-2.03-1.65c-0.1,0.01-0.19,0.06-0.28,0.09c13.47-14.65,23.39-27.67,24.37-28.96
		c0.62-0.81,0.45-1.97-0.36-2.59c-0.82-0.62-1.98-0.46-2.59,0.36c-0.58,0.77-58.34,76.58-86.51,70.8
		c-28.65-5.86-78.65-71.48-79.15-72.14c-0.62-0.81-1.78-0.98-2.59-0.36c-0.81,0.62-0.97,1.78-0.36,2.59
		c1.02,1.35,13.38,17.56,29.25,34.47c-0.12,0.22-0.21,0.46-0.24,0.73l-3.41,35.17c-1.78-0.35-3.57-0.79-5.24-1.34
		c-8.09-2.7-17.54-16.19-20.91-28.33c-2.35-8.45-4.36-75.29-5.38-115.21c3.36,8.51,8.16,18.71,15.52,21.55
		c8.49,3.27,30.64,3.62,39.77,3.62c3.44,0,14.39-3.02,18.65-9.83c2.46-3.93,7.72-15.14,10.99-22.25c2.41-1.06,8.73-3.27,13.99-0.18
		c3.26,7.09,8.6,18.46,11.08,22.43c4.25,6.81,15.2,9.83,18.65,9.83c9.13,0,31.28-0.35,39.77-3.62c6.96-2.68,11.63-11.96,14.96-20.15
		c-1.02,40.06-3.02,105.47-5.34,113.82C373.73,395.98,365.52,408.24,357.93,412.27z M201.91,253.65h69.03c0.34,0,0.68-0.05,1-0.14
		c1.08-0.11,4.32,0.21,5.89,0.58c0.48,1.29,0.4,2.88-0.27,4.33c-5.32,11.59-9.36,19.84-11.1,22.61c-2.53,4.04-10.58,6.35-12.38,6.35
		c-13.37,0-31.12-0.82-37.12-3.12c-5.57-2.14-10.35-14.79-12.91-21.58c-0.73-1.94-1.36-3.61-1.89-4.8
		C201.26,255.87,201.53,254.47,201.91,253.65z M303.7,254.09c1.56-0.38,4.79-0.69,5.89-0.58c0.32,0.09,0.66,0.14,1,0.14h69.02
		c0.4,0.84,0.66,2.24-0.24,4.24c-0.53,1.19-1.16,2.85-1.89,4.8c-2.57,6.79-7.34,19.44-12.91,21.58c-6,2.31-23.74,3.12-37.12,3.12
		c-1.8,0-9.85-2.31-12.38-6.36c-1.73-2.77-5.78-11.02-11.1-22.61C303.3,256.97,303.21,255.38,303.7,254.09z M296.04,93.73
		c0.58-0.17,14.29-4.14,33.53,2.73c0.96,0.34,1.46,1.4,1.12,2.36c-0.27,0.76-0.98,1.23-1.74,1.23c-0.21,0-0.42-0.03-0.62-0.11
		c-18.03-6.44-31.1-2.7-31.23-2.67c-0.97,0.29-2.01-0.27-2.3-1.24C294.51,95.06,295.07,94.03,296.04,93.73z M295.9,152.83
		c0,0,57.33,16.19,72.16,40.47c4.96,8.11,8.23,15.97,10.43,22.87c-0.31-0.88,0.05-1.86,0.9-2.28c0.92-0.45,2.03-0.06,2.47,0.85
		c0.15,0.31,15.02,31.27,14.35,76.37c-0.01,1.01-0.84,1.82-1.85,1.82c-0.01,0-0.02,0-0.03,0c-1.02-0.02-1.84-0.86-1.82-1.88
		c0.65-43.73-13.52-73.75-13.95-74.63c4.3,13.63,4.33,23.4,4.33,23.4s-0.05,2.48-0.14,6.7c-0.43-0.17-0.89-0.28-1.36-0.28h-70.81v0
		c-2.55-0.26-7.47-0.03-10.52,1.37h-18.6c-3.05-1.39-7.97-1.62-10.52-1.37l-70.82,0c-0.67,0-1.3,0.23-1.87,0.57
		c-0.1-4.39-0.15-6.99-0.15-6.99s0.03-15.5,8.64-34.72c-7.17,10.67-17.32,27.69-21.01,43.24c-5.98,25.24-7.39,32.88-7.4,32.95
		c-0.16,0.89-0.94,1.52-1.82,1.52c-0.11,0-0.22-0.01-0.33-0.03c-1.01-0.18-1.67-1.14-1.49-2.15c0.05-0.3,1.43-7.76,7.44-33.14
		c6.09-25.73,28.4-54.15,29.35-55.35c0.6-0.76,1.67-0.9,2.47-0.37c16.23-23.43,71.15-38.95,71.15-38.95l5.4-1.35L295.9,152.83z
		 M238.25,109.46c22.58-14.36,50.01-10.55,51.17-10.38c0.44,0.06,0.8,0.3,1.08,0.6v2.44c-0.4,0.44-0.98,0.71-1.62,0.62
		c-0.27-0.03-27.26-3.77-48.65,9.85c-0.31,0.19-0.65,0.29-0.99,0.29c-0.61,0-1.21-0.3-1.56-0.86
		C237.14,111.15,237.39,110.01,238.25,109.46z M164.66,230.45c0.37-1.05,37.81-105.09,122.39-108.47c0.99-0.13,1.88,0.75,1.92,1.77
		c0.04,1.02-0.75,1.88-1.77,1.92c-82.1,3.28-118.69,104.97-119.05,106c-0.27,0.76-0.98,1.24-1.74,1.24c-0.2,0-0.41-0.03-0.61-0.1
		C164.83,232.47,164.33,231.42,164.66,230.45z"/>
	<path class="st0" d="M246.66,276.25c4.09,0,7.41-4.87,7.41-10.87s-3.32-10.87-7.41-10.87c-4.09,0-7.41,4.87-7.41,10.87
		S242.57,276.25,246.66,276.25z"/>
	<ellipse class="st0" cx="332.64" cy="266.33" rx="6.76" ry="9.92"/>
	<path class="st0" d="M225.52,280.48l25.22,1.33c0.03,0,0.07,0,0.1,0c0.98,0,1.79-0.77,1.84-1.75c0.05-1.02-0.73-1.89-1.75-1.94
		l-25.22-1.33c-1.07-0.06-1.89,0.73-1.94,1.75C223.72,279.56,224.5,280.43,225.52,280.48z"/>
	<path class="st0" d="M327.97,280.73c0.06,0.98,0.87,1.74,1.84,1.74c0.04,0,0.07,0,0.11,0l22.57-1.33c1.02-0.06,1.8-0.94,1.74-1.95
		c-0.06-1.02-0.96-1.8-1.95-1.74l-22.57,1.33C328.69,278.84,327.91,279.71,327.97,280.73z"/>
	<path class="st0" d="M500.61,684.79h94.65c-6.16-17.77-51.61-148.43-59.04-154.62c-7.96-6.64-169.9-65.04-169.9-65.04l21.04,219.66
		h25.56c16.96-58.83,18.03-122.02,17.01-155.8c-0.03-1.02,0.77-1.87,1.79-1.9c1.09,0.07,1.87,0.77,1.9,1.79
		c1.02,33.81-0.03,96.89-16.84,155.91h62.15l15.12-68.19c0.22-0.99,1.2-1.63,2.21-1.4c1,0.22,1.62,1.21,1.4,2.21l-14.94,67.39h14.03
		l9.81-34.33c0.28-0.99,1.31-1.54,2.29-1.27c0.98,0.28,1.55,1.31,1.27,2.29L500.61,684.79z M431.52,521.37c-0.03,0-0.06,0-0.09,0
		c-0.98,0-1.8-0.77-1.84-1.76c-0.59-12.7-1.38-20.36-1.39-20.43c-0.11-1.02,0.63-1.92,1.64-2.03c1.04-0.12,1.92,0.63,2.03,1.64
		c0.01,0.08,0.81,7.83,1.41,20.65C433.33,520.45,432.54,521.32,431.52,521.37z M510.15,561.1l-8.37,37.74
		c-0.19,0.86-0.95,1.45-1.8,1.45c-0.13,0-0.27-0.01-0.4-0.04c-1-0.22-1.62-1.21-1.4-2.21l8.37-37.74c0.22-1,1.19-1.62,2.21-1.4
		C509.75,559.12,510.37,560.11,510.15,561.1z"/>
	<path class="st0" d="M373.99,598.7c-5.44,0.87-10.78,1.64-16,2.32c-1.01,0.13-1.73,1.06-1.59,2.07c0.12,0.93,0.92,1.61,1.83,1.61
		c0.08,0,0.16-0.01,0.24-0.02c5.26-0.68,10.63-1.46,16.11-2.33c1.01-0.16,1.69-1.11,1.53-2.12
		C375.95,599.22,375.02,598.53,373.99,598.7z"/>
	<path class="st0" d="M348.22,602.2c-79.5,8.9-130.94-3.35-131.45-3.47c-0.55-0.14-1.09,0.01-1.52,0.33l10.37-123.3
		c0,0,1.99-5.97-7.3-3.32c0,0-18.07,8.07-52.38,24.41c-4.14,31.77-10.52,93.79-6.5,151.32c0.07,1.02-0.7,1.9-1.72,1.97
		c-0.04,0-0.09,0-0.13,0c-0.96,0-1.77-0.75-1.84-1.72c-3.94-56.4,2.06-117.09,6.22-149.68c-14.1,6.74-30.75,14.77-49.84,24.13
		c-69.02,33.85-81.63,32.52-82.96,39.16c-1.18,5.92-20.29,101.99-24.42,122.76h58.8c-1.67-8.75-3.28-17.27-4.8-25.3
		c-3.97-21.03-7.4-39.2-10.15-51.94c-0.21-1,0.42-1.98,1.42-2.2c0.99-0.22,1.98,0.42,2.2,1.42c2.77,12.79,6.2,30.98,10.17,52.04
		c1.55,8.23,3.21,16.99,4.93,25.98h92.66c-1.18-7.11-2.23-14.49-3.02-22.31c-0.1-1.02,0.64-1.92,1.65-2.03
		c1.03-0.08,1.92,0.64,2.03,1.65c0.81,7.97,1.89,15.47,3.11,22.68h44.3l6.98-83.01c0.24,0.25,0.52,0.45,0.87,0.54
		c0.38,0.09,28.56,6.81,75.29,6.81c16.87,0,36.17-0.88,57.45-3.25c1.01-0.11,1.75-1.03,1.63-2.04
		C350.14,602.82,349.25,602.09,348.22,602.2z M46.71,597.71c-0.13,0.03-0.26,0.04-0.39,0.04c-0.85,0-1.62-0.59-1.81-1.46l-1.88-8.65
		c-0.22-1,0.41-1.98,1.41-2.2c1-0.21,1.98,0.41,2.2,1.41l1.89,8.66C48.34,596.51,47.7,597.49,46.71,597.71z"/>
</g>
</svg>
