<?xml version="1.0" encoding="utf-8"?>
<!-- Generator: Adobe Illustrator 26.0.3, SVG Export Plug-In . SVG Version: 6.00 Build 0)  -->
<svg version="1.1" id="Layer_1" xmlns="http://www.w3.org/2000/svg" xmlns:xlink="http://www.w3.org/1999/xlink" x="0px" y="0px"
	 viewBox="0 0 600 684.79" style="enable-background:new 0 0 600 684.79;" xml:space="preserve">
<style type="text/css">
	.st0{fill:#3F2242;}
</style>
<g>
	<path class="st0" d="M253.83,235.96c1.87,0.83,4.07,0.01,4.91-1.87c0.84-1.87,0.01-4.07-1.87-4.91
		c-19.06-8.58-35.16,0.66-35.83,1.06c-1.76,1.04-2.35,3.31-1.32,5.07c0.69,1.18,1.94,1.84,3.22,1.84c0.63,0,1.28-0.16,1.86-0.5
		C225.35,236.34,238.37,229,253.83,235.96z"/>
	<path class="st0" d="M341.78,230.02c-22.93-9.56-33.28-0.6-33.71-0.21c-1.5,1.35-1.61,3.63-0.3,5.16c1.32,1.53,3.65,1.71,5.21,0.42
		c0.07-0.06,7.73-6.09,25.94,1.49c0.47,0.2,0.95,0.29,1.43,0.29c1.46,0,2.84-0.86,3.43-2.29
		C344.57,232.98,343.67,230.8,341.78,230.02z"/>
	<path class="st0" d="M257.18,208.16c1.99,0.43,3.99-0.82,4.43-2.82c0.45-2-0.82-3.99-2.82-4.43
		c-33.29-7.39-49.35,10.04-50.01,10.79c-1.36,1.52-1.23,3.85,0.28,5.23c0.71,0.64,1.6,0.96,2.49,0.96c1.01,0,2.02-0.41,2.75-1.21
		C214.86,216.05,228.34,201.74,257.18,208.16z"/>
	<path class="st0" d="M307.86,208.16c28.82-6.4,42.3,7.87,42.88,8.5c0.73,0.81,1.74,1.22,2.76,1.22c0.88,0,1.77-0.31,2.48-0.95
		c1.53-1.37,1.66-3.72,0.29-5.25c-0.67-0.75-16.73-18.18-50.01-10.79c-2,0.45-3.27,2.43-2.82,4.43
		C303.87,207.34,305.86,208.59,307.86,208.16z"/>
	<path class="st0" d="M261.58,275.46c2.08,4.15,13.98,13.3,21.81,13.3c8.09,0,19.07-12.02,21.04-17.92
		c1.96-5.89-1.81-14.09-1.98-14.44l-3.37,1.58c0.93,1.98,3.06,7.95,1.82,11.69c-1.57,4.71-11.48,15.38-17.52,15.38
		c-6.33,0-17.05-8.35-18.49-11.24c-1.02-2.03,0-10.78,1.04-16.35l-3.65-0.68C261.83,259.2,259.64,271.59,261.58,275.46z"/>
	<path class="st0" d="M289.42,334.49c21.59-4.32,40.24-31.5,41.02-32.66l2.01-2.96l-92.5,1.51l1.54,2.72
		c0.79,1.4,18.36,31.94,42.36,31.94C285.67,335.05,287.53,334.87,289.42,334.49z M246.42,304l78.78-1.29
		c-5.46,7.14-20.44,24.93-36.51,28.14C268.59,334.84,251.68,312.04,246.42,304z"/>
	<path class="st0" d="M7.77,669.31l3.54,1.13c0,0,20.75-64.73,38.86-120.62l-3.53-1.15C28.52,604.57,7.77,669.31,7.77,669.31z"/>
	<path class="st0" d="M188.68,394.83c-18.8,11.33-112.71,68.17-115.6,73.94c-0.36,0.72-1.45,2.9-22.26,67.01l3.53,1.15
		c18.04-55.54,21.56-65.5,22.01-66.41c3.22-4.59,70.08-45.87,114.24-72.5L188.68,394.83z"/>
	
		<rect x="589.01" y="644.46" transform="matrix(0.9519 -0.3065 0.3065 0.9519 -173.069 212.7252)" class="st0" width="3.72" height="26.04"/>
	<path class="st0" d="M511.53,454.26l-2.03,3.11c15.51,10.13,18.13,12.57,18.49,13.07c1.41,2.83,20.67,61.8,52.83,161.81l3.54-1.14
		c-23.13-71.91-51.1-158.45-53.05-162.33C530.89,467.94,530.11,466.4,511.53,454.26z"/>
	<path class="st0" d="M101.13,478.89c5.67-0.95,75.44-32.84,83.37-36.47l-1.55-3.38c-30.99,14.19-78.51,35.54-82.44,36.19
		c-3.55,0.63-8.04-4.74-9.33-6.65l-3.09,2.06c0.6,0.9,5.75,8.35,11.83,8.35C100.32,478.99,100.73,478.96,101.13,478.89z"/>
	
		<rect x="99.06" y="510.84" transform="matrix(0.9999 -0.0103 0.0103 0.9999 -6.0979 1.0723)" class="st0" width="3.72" height="161.84"/>
	
		<rect x="98.09" y="491.96" transform="matrix(1 -9.737164e-03 9.737164e-03 1 -4.838 0.9968)" class="st0" width="3.72" height="10.78"/>
	<path class="st0" d="M490.5,475.23c-1.05-0.17-6.89-2.28-34.15-14.39l-1.51,3.4c31.77,14.11,34.16,14.51,35.05,14.66
		c0.4,0.07,0.8,0.1,1.2,0.1c6.08,0,11.23-7.45,11.83-8.35l-3.09-2.06C498.55,470.49,494.09,475.84,490.5,475.23z"/>
	<path class="st0" d="M406.52,442.42c0,0,19.77,9.05,40.05,18.12l1.52-3.39c-20.26-9.06-40.01-18.11-40.02-18.11L406.52,442.42z"/>
	
		<rect x="411.57" y="592.33" transform="matrix(9.737164e-03 -1 1 9.737164e-03 -108.8545 1078.4484)" class="st0" width="157" height="3.72"/>
	
		<rect x="482.81" y="498.33" transform="matrix(9.737164e-03 -1 1 9.737164e-03 -13.9046 986.3358)" class="st0" width="16.45" height="3.72"/>
	<path class="st0" d="M255.48,617.31l-0.03-1.49c-0.36-15.1-1.85-40.72-7.79-42.71l-5.59-1.87l-1.18,3.53l5.54,1.84
		c2.58,1.61,4.76,20.52,5.27,37.77c-6.39,1.4-32.58,6.65-55.67,4.29c-9.43-0.98-21.57-2.29-33.39-3.59l-0.41,3.69
		c11.83,1.3,23.99,2.62,33.42,3.59c4.28,0.44,8.65,0.63,13,0.63c23.08,0,45.12-5.27,45.38-5.33L255.48,617.31z"/>
	<path class="st0" d="M227.39,573.93l0.24-3.71c-30.68-1.99-102.35-5.66-105.28,3.13c-2.84,8.52-4.67,37.44-4.75,38.66l-0.11,1.76
		l1.76,0.2c0,0,12.47,1.41,28.31,3.17l0.41-3.69c-12.3-1.37-22.56-2.52-26.54-2.97c0.45-6.49,2.14-29.03,4.38-35.83
		C129.34,570.31,180.22,570.87,227.39,573.93z"/>
	
		<rect x="95.66" y="642.87" transform="matrix(0.0586 -0.9983 0.9983 0.0586 -530.7342 726.6487)" class="st0" width="48.52" height="3.71"/>
	
		<rect x="252.66" y="622.31" transform="matrix(0.9977 -0.0676 0.0676 0.9977 -43.3577 18.6968)" class="st0" width="3.72" height="55.09"/>
	<path class="st0" d="M180.93,610.27c0,4.12,3.34,7.45,7.45,7.45c4.12,0,7.45-3.34,7.45-7.45c0-4.12-3.34-7.45-7.45-7.45
		C184.27,602.81,180.93,606.15,180.93,610.27z"/>
	<path class="st0" d="M389.4,618.67c-23.09,2.37-49.27-2.88-55.66-4.29c0.51-17.25,2.69-36.16,5.21-37.75l5.59-1.87l-1.18-3.53
		l-5.59,1.87c-5.94,1.98-7.43,27.61-7.79,42.71l-0.03,1.49l1.46,0.36c0.26,0.06,22.3,5.33,45.38,5.33c4.34,0,8.72-0.19,13-0.63
		c15.96-1.65,39.72-4.28,56.5-6.15l-0.41-3.69C429.1,614.39,405.35,617.02,389.4,618.67z"/>
	<path class="st0" d="M467.83,612.01c-0.08-1.23-1.91-30.15-4.75-38.66c-2.93-8.78-74.6-5.11-105.28-3.13l0.24,3.71
		c47.16-3.05,98.05-3.62,101.52,0.6c2.3,6.91,4,29.46,4.45,35.96l-7.73,0.87l0.41,3.69l11.26-1.27L467.83,612.01z"/>
	
		<rect x="463.65" y="620.47" transform="matrix(0.9983 -0.0576 0.0576 0.9983 -36.3534 27.8754)" class="st0" width="3.71" height="48.52"/>
	
		<rect x="303.36" y="648" transform="matrix(0.0683 -0.9977 0.9977 0.0683 -340.0377 935.5892)" class="st0" width="55.09" height="3.72"/>
	<path class="st0" d="M404.5,610.27c0-4.12-3.34-7.45-7.45-7.45c-4.12,0-7.45,3.34-7.45,7.45c0,4.12,3.34,7.45,7.45,7.45
		C401.16,617.72,404.5,614.38,404.5,610.27z"/>
	<rect x="281.54" y="620.22" class="st0" width="3.72" height="64.56"/>
	<rect x="281.54" y="567.42" class="st0" width="3.72" height="40.65"/>
	<path class="st0" d="M296.91,578.59c-3.86,0-6.99,3.13-6.99,6.99s3.13,6.99,6.99,6.99c3.86,0,6.99-3.13,6.99-6.99
		S300.76,578.59,296.91,578.59z"/>
	<path class="st0" d="M296.91,645.66c-3.86,0-6.99,3.13-6.99,6.99s3.13,6.99,6.99,6.99c3.86,0,6.99-3.13,6.99-6.99
		S300.76,645.66,296.91,645.66z"/>
	<path class="st0" d="M349.9,518.37c7.68-15.35,19.03-39.2,23.65-49.62c-9.32,10.33-35.62,38.36-59.22,53
		c-7.14,4.43-14.79,7.79-22.74,9.99l-0.99-3.58c7.61-2.11,14.94-5.33,21.78-9.57c20.4-12.65,42.95-35.59,54.36-47.89
		c-19.69,10.74-48.17,23.3-75.87,23.3c-3.51,0-7.01-0.2-10.48-0.63c-26.65-3.33-47.99-21-61.21-35.23l2.72-2.53
		c12.8,13.78,33.41,30.88,58.95,34.07c37.79,4.71,79.97-19.19,98.98-30.9c10.62-11.33,38.04-39.25,40.3-47.16
		c1.1-3.85,1.75-6.54,1.79-8.68c15.58,9.45,50.33,30.62,75.82,46.86l2-3.13c-28.24-17.99-67.85-42.04-80.19-49.51
		c-0.73-0.76-1.57-1.53-2.69-2.39c-6.09-4.68-12.17-9.36-12.17-9.36s6.09-17.32,3.75-22.01c-1.85-3.69-12.98-13.76-17.62-17.87
		c-26.08,18.16-55.81,32.91-56.18,33.09l-1.64-3.33c0.37-0.18,31.62-15.68,57.92-34.36c5.66-7.66,20.68-29.8,22.2-51.04
		c1.31-18.38-5.42-46.86-9.57-62.27c-2.3,21.17-6.34,39.2-9.77,51.85l-3.59-0.97c3.9-14.36,8.58-35.74,10.55-60.78
		c-0.16-0.55-0.26-0.87-0.26-0.87s0-38.39-23.88-66.95c-23.88-28.56-64.15-48.23-89.43-49.16c-25.28-0.94-35.58,5.15-35.58,5.15
		s-63.68,49.16-68.83,82.87c-5.15,33.71-9.47,94.53-7.96,106.75c0.6,4.87,6.08,13.11,6.09,13.11l1.57-0.99
		c0.29,0.47,29.64,47.01,56.91,60.65l-1.66,3.32c-24.48-12.24-49.52-48.45-56.51-59.08c0.87,10.3,3.57,37.88,8.12,44.32
		c3.46,4.91,5.32,8.38,6.24,10.33c12.52,8.03,36.38,20.14,70.14,23.24l-0.34,3.7c-32.8-3.01-56.24-14.08-69.56-22.28
		c-1.02,5.34-3.12,16.75-3.2,20.13c-0.11,4.47,3.16,9.91,3.28,16.39c0.12,6.48-1.87,13.11-1.4,17.79c0.47,4.68-4.68,16.39-1.4,58.99
		c3.28,42.61,23.41,82.41,75.85,81.94C321.34,566.6,340.07,538.04,349.9,518.37z M281.19,394.87l0.02-3.72
		c6.31,0.03,12.72-0.25,19.11-0.85l0.35,3.7c-6.17,0.58-12.38,0.87-18.47,0.87C281.86,394.87,281.53,394.87,281.19,394.87z
		 M334.07,426.19l1.83,3.23c-22.47,12.75-34.62,15.78-41.09,15.78c-4.65,0-6.37-1.56-6.88-2.22l1.46-1.15l1.37-1.25
		C290.82,440.64,297.99,446.66,334.07,426.19z M388.42,284.72l3.56,1.05c-2.19,7.41-3.75,11.57-3.82,11.75l-3.48-1.31
		C384.7,296.17,386.27,291.99,388.42,284.72z M227.61,139.36c9.31-8.14,19.53-16.27,26.17-21.43c6.39-2.99,13.18-4.54,20.38-4.54
		c5.4,0,11.03,0.87,16.87,2.55c0.96,0.29,1.92,0.57,2.9,0.9c0.2,0.07,0.39,0.13,0.59,0.2c1.22,0.42,2.46,0.88,3.7,1.36
		c0.59,0.23,1.17,0.44,1.76,0.69c0.05,0.02,0.11,0.05,0.16,0.07c1.28,0.54,2.56,1.11,3.86,1.72c13.03,6.15,27.58,18.32,35.95,25.86
		c-17.41-6.38-56.13-18.63-82.6-12.56c-18.23,4.18-32.75,12.5-42.49,19.52C218.44,149.4,222.76,144.45,227.61,139.36z
		 M202.53,300.17c-1.75-3.28-4.33-104.4-4.33-104.4s1.6-15.54,6.04-28.26c3.27-3.31,23.51-22.73,53.96-29.72
		c33.17-7.62,88.76,15.63,89.32,15.86l7.48,3.16c11.28,14.68,19.83,41.17,21.6,50.19c1.86,9.49,3.75,78.19-3.28,94.58
		c-7.02,16.39-30.9,46.82-30.9,46.82s-29.03,23.88-50.57,28.56s-62.47-41.01-62.47-41.01S204.29,303.45,202.53,300.17z
		 M251.62,378.03l1.43-3.43c24.58,10.25,43.6,10.62,63.61,1.25l1.57,3.37c-10.13,4.74-20,7.12-30.37,7.12
		C276.68,386.34,264.92,383.57,251.62,378.03z M213.55,451.75c-7.46-8.93-11.52-15.69-11.69-15.97l3.19-1.91
		c0.04,0.07,4.1,6.81,11.35,15.5L213.55,451.75z M198.14,406.63l1.8-0.45l1.8-0.46c0.08,0.31,8.95,31.42,76.59,33.67l-0.12,3.72
		C207.48,440.75,198.49,408.02,198.14,406.63z M268.98,534.83c-7.67,0-12.47-1.1-12.75-1.16l0.84-3.62
		c0.09,0.02,9.12,2.06,22.05,0.41l0.47,3.69C275.66,534.65,272.08,534.83,268.98,534.83z"/>
</g>
</svg>
