<?xml version="1.0" encoding="utf-8"?>
<!-- Generator: Adobe Illustrator 26.0.3, SVG Export Plug-In . SVG Version: 6.00 Build 0)  -->
<svg version="1.1" id="Layer_1" xmlns="http://www.w3.org/2000/svg" xmlns:xlink="http://www.w3.org/1999/xlink" x="0px" y="0px"
	 viewBox="0 0 600 684.79" style="enable-background:new 0 0 600 684.79;" xml:space="preserve">
<style type="text/css">
	.st0{fill:#3F2242;}
</style>
<g>
	<path class="st0" d="M280.15,240.7c-0.95-0.46-2.11-0.08-2.58,0.87c-0.47,0.95-0.09,2.11,0.86,2.58c0.41,0.2,6.8,3.3,17.33,3.3
		c5.95,0,13.22-0.99,21.48-4.05c1-0.37,1.51-1.48,1.14-2.48c-0.37-0.99-1.48-1.51-2.48-1.14
		C294.67,247.66,280.29,240.77,280.15,240.7z"/>
	<path class="st0" d="M357.31,258c0.37-1-0.15-2.1-1.15-2.47c-0.99-0.35-2.1,0.14-2.48,1.15c-0.03,0.08-3.25,8.53-13.18,13.88
		c-10.84,5.84-41.95,10.32-69.84,3.14c-26.3-6.76-25.92-16.69-25.91-16.95c0.13-1.04-0.6-1.99-1.64-2.14
		c-1.03-0.14-2.03,0.58-2.18,1.64c-0.08,0.54-1.55,13.39,28.77,21.19c10.68,2.75,21.7,3.86,31.95,3.86
		c17.79,0,33.28-3.35,40.69-7.34C353.62,267.87,357.17,258.4,357.31,258z"/>
	<path class="st0" d="M267.42,206.83c0.61,0.35,1.27,0.52,1.93,0.52c1.33,0,2.63-0.69,3.34-1.93c1.07-1.84,0.44-4.2-1.41-5.27
		c-17.4-10.07-32.91-2.07-33.56-1.73c-1.88,0.99-2.59,3.31-1.6,5.19c0.99,1.89,3.31,2.61,5.2,1.64
		C241.82,205,253.82,198.96,267.42,206.83z"/>
	<path class="st0" d="M325.74,200.81c-1.94,0.88-2.8,3.17-1.91,5.11c0.64,1.42,2.05,2.26,3.52,2.26c0.53,0,1.07-0.11,1.59-0.35
		c4.48-2.03,17.59-6.24,24.25-1.25c1.7,1.27,4.12,0.94,5.4-0.77c1.28-1.7,0.93-4.12-0.77-5.4
		C346.19,191.68,326.58,200.43,325.74,200.81z"/>
	<path class="st0" d="M363.41,184.36c1.79-1.16,2.29-3.56,1.12-5.34c-12.75-19.51-36.09-12.56-46.65-6.16
		c-1.82,1.1-2.4,3.48-1.3,5.3c1.11,1.83,3.48,2.4,5.3,1.3c0.98-0.6,24.28-14.43,36.19,3.78c0.74,1.13,1.97,1.75,3.23,1.75
		C362.03,184.98,362.76,184.78,363.41,184.36z"/>
	<path class="st0" d="M343.76,344.31c-0.24,0.14-23.82,13.85-41.36,14.65c-17.52,0.69-53.17-22.65-53.53-22.88
		c-0.89-0.59-2.09-0.34-2.67,0.55c-0.59,0.89-0.34,2.09,0.55,2.67c1.48,0.98,35.93,23.54,54.82,23.54c0.34,0,0.68-0.01,1.01-0.02
		c18.49-0.84,42.14-14.59,43.14-15.17c0.92-0.54,1.23-1.72,0.69-2.64C345.86,344.08,344.67,343.78,343.76,344.31z"/>
	<path class="st0" d="M178.76,207.73c-0.86,0.62-1.06,1.83-0.44,2.69c0.62,0.86,1.82,1.06,2.69,0.44
		c2.58-1.86,11.9,5.61,18.96,13.77c0.38,0.44,0.92,0.67,1.46,0.67c0.45,0,0.9-0.15,1.26-0.47c0.81-0.69,0.89-1.91,0.2-2.72
		C198.92,217.52,185.47,202.91,178.76,207.73z"/>
	<path class="st0" d="M391.96,226.13c0.95,0,1.77-0.7,1.91-1.67c0.03-0.23,3.31-22.64,17.44-24.87c1.05-0.17,1.77-1.16,1.6-2.21
		c-0.17-1.06-1.17-1.77-2.21-1.61c-16.96,2.68-20.52,27.11-20.66,28.15c-0.15,1.06,0.59,2.03,1.65,2.17
		C391.78,226.12,391.87,226.13,391.96,226.13z"/>
	<path class="st0" d="M314.09,183.45c-0.43,0.7-10.34,17.54-4.31,34.76c0.28,0.8,1.02,1.29,1.82,1.29c0.21,0,0.43-0.03,0.64-0.11
		c1.01-0.35,1.54-1.45,1.18-2.46c-5.42-15.49,3.88-31.35,3.98-31.5c0.55-0.92,0.25-2.1-0.66-2.65
		C315.81,182.24,314.63,182.54,314.09,183.45z"/>
	<path class="st0" d="M240.09,370.67c-0.03,0.3-2.68,30.11-22.55,47.59c-20.12,17.7-43.74,24.37-43.97,24.44
		c-1.03,0.29-1.63,1.35-1.35,2.37c0.23,0.86,1.01,1.42,1.86,1.42c0.17,0,0.34-0.02,0.51-0.07c1-0.28,24.69-6.96,45.49-25.27
		c21.05-18.53,23.74-48.89,23.84-50.17c0.09-1.06-0.7-1.99-1.76-2.08C241.07,368.83,240.18,369.61,240.09,370.67z"/>
	<path class="st0" d="M532.78,500.06c-4.14-11.6-105.21-52.19-105.21-52.19s-65.44,38.11-132.54,38.11s-130.89-33.14-130.89-33.14
		s-63.79,20.71-86.15,30.65c-22.37,9.94-74.55,201.3-74.55,201.3h593.13C596.56,684.79,536.92,511.65,532.78,500.06z M252.22,534.14
		c-43.18-14.88-85.98-41.35-86.41-41.61l2.03-3.28c0.43,0.26,42.87,26.51,85.63,41.24L252.22,534.14z M283.85,542.58
		c-6.21-1.07-12.96-2.67-20.06-4.75l1.08-3.7c6.96,2.03,13.57,3.6,19.63,4.64L283.85,542.58z M344.9,508.81l-0.53-3.82
		c50.4-6.95,80.58-29.62,80.88-29.85l2.34,3.07C427.29,478.43,396.37,501.71,344.9,508.81z"/>
	<path class="st0" d="M163.39,341.49c52.01,20.15,78.9,19.87,78.9,19.87l-3.15-26.79c0,0-30.84-28.2-34.08-44.21
		c-3.24-16.01-5.01-41.76-5.01-41.76s-26.53-13.15-25.96-35.15c0.58-21.99,16.38-19,17.51-15.29c1.12,3.71,13.14,11.46,13.14,11.46
		s-3.5-46.51,33.46-74.66c-0.45-0.59-0.54-1.4-0.17-2.09c0.37-0.68,9.43-16.91,36.19-34.75c26.42-17.61,39.11-24.89,39.23-24.96
		c0.91-0.52,2.1-0.21,2.63,0.72c0.53,0.92,0.21,2.1-0.72,2.63c-0.12,0.07-12.72,7.3-39.01,24.82
		c-25.88,17.26-34.86,33.23-34.94,33.39c-0.35,0.64-1.01,1-1.7,1c-0.31,0-0.63-0.08-0.92-0.24c-0.05-0.03-0.08-0.08-0.13-0.11
		c-2.53,3.83-9.17,14.04-14.27,23.57c-6.42,12.01-10.57,30.21-10.57,30.21s24.7-10.15,59.05-15.07c34.34-4.92,39.29-7.19,56.67-17.6
		c17.38-10.4,26.18-19.88,26.18-19.88l-9.19,24.14c0,0,13.27,6.58,20.72,1.94c7.45-4.63,16.32-16.55,16.32-16.55l3.24,62.48
		c0,0,9.28-27.81,27.56-25.95s7.71,32.07,0.03,45.25c-7.68,13.19-14.01,21.53-17.73,23.84c-3.73,2.32-4.75,41.42-12.46,55.82
		c-6.57,12.28-22.12,30.41-26.59,35.51c-0.33-0.29-0.74-0.49-1.22-0.5c-0.02,0-0.03,0-0.04,0c-1.05,0-1.91,0.84-1.93,1.89
		c-0.03,1.74-0.75,42.77,10.12,63.68c10.93,21.03,45.77,38.23,47.25,38.95c0.28,0.13,0.56,0.2,0.85,0.2c0.71,0,1.4-0.4,1.73-1.08
		c0.47-0.96,0.07-2.11-0.89-2.58c-0.35-0.17-35.17-17.36-45.52-37.26c-9.67-18.59-9.74-55.53-9.69-61.09
		c6.08,2.21,26.89,7.94,61.62-1c41.83-10.77,71.77-34.19,80.79-52.22c9.03-18.03-13.14-11.46-30.94-31.65
		c-17.8-20.19-40.8-74.8-47.51-98.27c-6.71-23.47,3.76-96.48-21.4-115.7c-25.15-19.22-66.31-34.1-128.92-22.83
		c-62.61,11.27-99.75,76.02-101.74,105.3c-1.99,29.28,1.73,73.44-12.46,102.3c-14.2,28.86-49.76,33.73-53.68,43.38
		C100.14,284.25,111.38,321.33,163.39,341.49z M267.73,146.97c-10.96,3.8-18.47,6.13-18.54,6.15c-0.19,0.06-0.38,0.09-0.57,0.09
		c-0.82,0-1.59-0.53-1.84-1.36c-0.32-1.02,0.25-2.1,1.27-2.41c0.08-0.02,7.53-2.34,18.42-6.12c1.01-0.34,2.11,0.18,2.46,1.19
		C269.27,145.53,268.74,146.62,267.73,146.97z M374.73,60.88c-0.15-1.05,0.58-2.03,1.64-2.18c1.04-0.14,2.03,0.58,2.18,1.64
		c1.84,12.9-8.39,40.3-43.69,58.88c-13.25,6.97-30.69,14.47-51.84,22.29c-0.22,0.08-0.45,0.12-0.67,0.12
		c-0.78,0-1.52-0.48-1.81-1.26c-0.37-1,0.14-2.11,1.14-2.48c21-7.77,38.29-15.19,51.39-22.09
		C364.83,99.08,376.55,73.62,374.73,60.88z"/>
</g>
</svg>
